<svg xmlns="http://www.w3.org/2000/svg" width="1080" height="1080" viewBox="0 0 1080 1080"><path d="M0 0h1080v1080H0z" fill="#F7F7F7"/><path d="M91.722 175.746c9.651 2.905 19.384 4.465 29.34 5.879l2.274 0.327c6.649 0.954 13.296 1.9 19.969 2.677 21.133 2.688 41.21 17.418 54.695 33.371 10.926 14.972 16.895 32.115 21 50l0.55 2.356c2.14 9.26 3.834 18.552 5.2 27.956l0.387 2.66c0.606 4.392 0.916 8.584 0.863 13.028 19.347 -4.547 19.347 -4.547 38.312 -10.438 8.714 -3.064 17.552 -5.431 26.5 -7.687 11.788 -2.975 23.376 -6.174 34.872 -10.148 6.505 -2.234 12.853 -4.144 19.566 -5.602 6.33 -1.382 12.267 -3.302 18.312 -5.625 8.37 -3.21 16.7 -5.54 25.438 -7.5q4.22 -0.96 8.437 -1.938l2.129 -0.492c10.156 -2.396 20.101 -5.528 30.059 -8.633q3.187 -0.972 6.375 -1.937l3.388 -1.046c8.888 -2.578 16.969 -3.545 26.276 -3.485l4.1 -0.012q4.272 -0.008 8.546 0.022c3.555 0.022 7.109 0.009 10.664 -0.014 17.973 -0.1 35.14 1.242 52.926 4.061 4.312 0.66 8.634 1.171 12.971 1.634l2.177 0.235q3.195 0.338 6.39 0.667l4.708 0.5c9.696 1.027 19.4 1.989 29.104 2.938a1468 1468 0 0 1 32.375 3.562l2.086 0.25c6.516 0.78 13.008 1.606 19.476 2.72 6.042 1.038 12.093 1.763 18.188 2.405l3.584 0.383c10.355 1.072 20.724 1.89 31.103 2.68 18.5 1.414 36.959 2.959 55.27 6.033 10.893 1.82 21.642 2.853 32.668 3.342 20.277 0.904 40.321 3.529 60.447 6.063 10.125 1.27 20.263 2.364 30.412 3.414 4.224 0.437 8.44 0.915 12.657 1.421 11.776 1.4 23.487 2.448 35.327 3.052 29.007 1.507 52.225 7.75 73.157 29.175 13.527 16 15.521 35.14 15.391 55.239 -0.016 2.926 0 5.852 0.02 8.779 0.017 15.72 -1.972 30.638 -5.599 45.92 -6.343 28.147 -10.859 56.73 -15.301 85.227a1406 1406 0 0 1 -5.699 33.772c-1.848 10.203 -3.47 20.405 -4.812 30.688 -2.681 20.423 -6.605 40.63 -11.18 60.71 -1.47 6.609 -2.566 13.237 -3.59 19.93 -4.128 26.777 -13.024 55.23 -34.23 73.735h-4v3h-3v4h-3l-0.3 1.824c-1.603 4.983 -7.408 7.472 -11.753 9.84a440 440 0 0 1 -10.697 5.211l-1.933 0.921c-8.088 3.852 -16.217 7.608 -24.505 11.016l-2.293 0.967c-5.458 2.16 -10.673 2.889 -16.519 3.221l-0.201 2.34C860 783 860 783 857.934 784.437l-2.711 1.132 -2.998 1.278 -3.163 1.277c-1.008 0.43 -2.017 0.859 -3.056 1.3C830.299 796 830.299 796 823 796c-0.066 0.605 -0.131 1.21 -0.2 1.832 -1.13 3.062 -2.7 3.503 -5.613 4.855l-2.644 1.262c-4.674 1.931 -8.468 2.149 -13.543 2.051v4c-0.683 0.15 -1.366 0.3 -2.07 0.453 -7.908 2.063 -14.367 5.32 -21.43 9.36 -39.465 22.234 -84.247 17.892 -127.392 11.498 -9.609 -1.416 -19.16 -2.547 -28.858 -3.124a488 488 0 0 1 -26.031 -2.425l-2.857 -0.341q-7.064 -0.849 -14.123 -1.744c-20.267 -3.525 -20.267 -3.525 -38.813 2.518 -1.67 1.387 -3.267 2.833 -4.864 4.305 -6.773 6.018 -13.97 11.074 -21.491 16.103 -6.44 4.345 -12.745 8.89 -19.071 13.397l-2.228 1.586C480.675 869.506 469.797 877.678 459 886c-10.43 8.033 -20.862 16.023 -31.668 23.547 -6.34 4.422 -12.552 9.012 -18.739 13.647C391.93 935.597 391.93 935.597 381 934c-3.72 -3.254 -5.659 -7.503 -6.327 -12.398l-0.112 -2.527 -0.143 -2.905 -0.129 -3.127 -0.328 -6.704c-0.055 -1.168 -0.11 -2.337 -0.165 -3.54 -0.96 -20.324 -2.55 -40.29 -5.357 -60.437 -1.789 -13.698 -2.877 -27.545 -2.439 -41.362l-2.754 0.105c-36.797 -0.046 -69.598 -17.89 -95.309 -42.918C259 748.983 259 748.983 259 743h-4a5002 5002 0 0 1 -4.425 -13.11 1985 1985 0 0 0 -1.498 -4.433 445 445 0 0 1 -14.265 -52.332l-0.567 -2.7c-4.1 -19.63 -7.345 -39.396 -10.575 -59.185 -3.307 -20.25 -6.936 -40.422 -10.784 -60.576a2415 2415 0 0 1 -2.538 -13.566c-2.591 -14.003 -5.32 -27.965 -8.258 -41.899 -2.128 -10.11 -3.987 -20.216 -5.403 -30.449 -3.51 -25.076 -8.02 -49.89 -13.125 -74.688l-0.724 -3.523 -2.854 -13.866c-4.371 -21.256 -8.646 -42.421 -11.172 -63.986C166.388 288.05 162.375 268.885 148 253l-1.71 -1.953c-3.945 -4.248 -7.952 -6.839 -13.29 -9.047l-2.14 -1.012c-4.085 -1.412 -8.213 -1.907 -12.485 -2.488 -5.296 -0.74 -10.568 -1.516 -15.824 -2.504 -5.558 -1.03 -11.127 -1.762 -16.739 -2.434l-3.095 -0.382q-8.16 -1.007 -16.33 -1.934l-3.244 -0.38q-3.06 -0.356 -6.124 -0.688c-8.886 -1.049 -17.104 -3 -23.019 -10.178 -4.435 -6.855 -5.483 -13.758 -5.625 -21.75l-0.07 -2.4C28.38 190.136 29.793 185.1 34 181h4v-5c17.165 -8.77 35.934 -5.694 53.722 -0.254" fill="#282E36"/><path d="m239.707 371.81 3.23 0.003 3.302 0.002c8.636 0.065 17.036 0.748 25.586 1.903 4.506 0.584 9.03 1.027 13.55 1.496 4.139 0.45 8.246 1.024 12.36 1.669 35.126 5.49 70.527 9.72 105.986 12.331 8.684 0.67 17.322 1.668 25.966 2.724l2.163 0.263c6.648 0.815 13.29 1.648 19.912 2.654 12.043 1.822 23.968 2.61 36.122 3.194 9.613 0.475 18.875 1.345 28.29 3.424 7.34 1.573 14.665 2.263 22.138 2.902 11.255 0.968 22.34 2.43 33.492 4.222 16.851 2.707 33.583 4.433 50.625 5.378 7.962 0.454 15.756 1.106 23.622 2.45 12.198 2.086 24.502 3.018 36.824 4.075 26.335 2.266 26.335 2.266 38.82 3.992l2.516 0.338c13.398 1.955 24.192 8.026 34.789 16.17l2.082 1.559c12.257 9.766 20.1 24.501 22.268 39.93 1.21 15.539 -1.656 30.533 -4.499 45.718 -2.267 12.144 -4.098 24.28 -5.601 36.543l-0.61 4.933 -0.86 7.009a777 777 0 0 1 -2.468 18.433l-0.325 2.312c-0.42 2.799 -0.895 5.34 -1.979 7.964 -1.019 2.627 -1.466 4.893 -1.814 7.683l-0.385 2.999 -0.395 3.226 -0.433 3.385c-0.459 3.58 -0.908 7.162 -1.356 10.744 -1.77 14.138 -3.63 28.193 -6.29 42.195 -1.288 6.854 -2.084 13.665 -2.648 20.617 -1.043 11.085 -2.903 21.867 -5.187 32.75l-0.454 2.165c-4.96 23.5 -4.96 23.5 -8.046 30.835h-4l-0.125 2c-1.613 5.53 -5.355 10.193 -10.063 13.5C723 779 723 779 720 779l-0.238 1.863C719 783 719 783 717.145 784.23l-2.333 0.958 -2.292 0.98c-5.723 1.89 -11.369 2.026 -17.333 2.02l-2.496 -0.003a166 166 0 0 1 -17.191 -1.06l-2.156 -0.238c-3.474 -0.442 -5.375 -0.907 -8.344 -2.887 -2.672 -0.381 -2.672 -0.381 -5.738 -0.457l-3.613 -0.175c-1.307 -0.06 -2.615 -0.12 -3.962 -0.18 -12.093 -0.635 -24.009 -1.882 -36 -3.563 -16.076 -2.249 -32.165 -3.926 -48.333 -5.369l-2.617 -0.236q-2.425 -0.216 -4.85 -0.425c-5.444 -0.484 -5.444 -0.484 -7.936 -1.107 -7.735 -1.934 -16.877 -1.168 -23.951 2.512 -3.846 2.448 -7.419 5.183 -11 8l-3.11 2.441 -3.328 2.622A3136 3136 0 0 1 503 794l-2.497 1.958a1261 1261 0 0 1 -8.066 6.23l-2.597 2.037 -2.469 1.88 -2.19 1.693c-2.58 1.422 -4.278 1.438 -7.181 1.202l-0.113 2.195c-1.241 3.926 -3.81 5.45 -7.075 7.68l-1.97 1.398c-4.093 2.882 -8.242 5.683 -12.381 8.497l-2.894 1.967q-2.805 1.901 -5.624 3.784a210 210 0 0 0 -15.74 11.693c-5.337 4.328 -7.34 5.13 -14.203 4.786 -2.053 -5.235 -2.556 -10.202 -3 -15.75q-0.216 -2.554 -0.438 -5.11c-0.08 -0.942 -0.162 -1.885 -0.246 -2.856a333 333 0 0 0 -0.789 -7.337c-1.39 -11.734 -2.118 -23.421 -2.631 -35.222 -0.417 -9.378 -1.028 -18.496 -2.896 -27.725l-3.156 -0.078c-8.297 -0.297 -15.683 -1.218 -23.687 -3.477 -5.177 -1.38 -10.123 -1.83 -15.47 -2.007 -18.975 -0.675 -37.12 -3.092 -51.687 -16.438l-2.488 -2.246c-16.06 -15.23 -23.3 -34.93 -26.387 -56.441 -1.422 -9.42 -3.215 -18.676 -5.335 -27.962 -1.62 -7.222 -2.815 -14.45 -3.714 -21.796 -0.56 -4.268 -1.487 -7.508 -3.323 -11.437 -1.833 -5.153 -2.188 -10.782 -2.878 -16.18l-0.512 -3.74c-1.115 -8.392 -1.854 -16.75 -2.363 -25.198l-4 -1 -0.332 -3.043c-0.893 -7.817 -2.113 -15.34 -4.016 -22.988 -0.773 -3.521 -1.093 -6.958 -1.246 -10.555 -0.32 -2.59 -0.32 -2.59 -1.844 -5.394 -2.41 -5.357 -2.535 -11.175 -3.062 -16.957 -1.024 -10.166 -2.338 -20.077 -4.5 -30.063l-0.563 -2.645c-0.603 -2.765 -1.22 -5.522 -1.933 -8.261 -1.28 -5.16 -1.86 -10.312 -2.379 -15.594 -0.647 -6.423 -1.647 -12.652 -3.125 -18.937l-0.503 -2.168c-0.808 -3.278 -1.604 -5.555 -3.497 -8.395 -0.47 -2.325 -0.47 -2.325 -0.781 -5.043l-0.364 -3.006 -0.355 -3.138c-0.86 -8.03 -0.86 -8.03 -2.582 -15.899 -1.287 -4.756 -1.173 -9.455 -1.106 -14.351l0.002 -2.756c0.055 -8.097 0.872 -7.938 8.893 -7.997" fill="#23B48A"/><path d="M971 374c1.12 20.268 -1.863 39.203 -5.626 59.026q-0.516 2.733 -1.019 5.468 -0.784 4.256 -1.605 8.506l-0.456 2.368c-0.708 3.475 -1.474 6.566 -3.294 9.632l-2 -1 -0.17 2.07c-3.266 39.443 -3.266 39.443 -5.393 56.305l-0.347 2.859 -0.344 2.602 -0.291 2.236C950 526 950 526 948 529c-0.513 2.276 -0.513 2.276 -0.79 4.863l-0.402 3.072 -0.433 3.378c-1.855 13.56 -4.603 26.864 -7.557 40.223 -1.839 8.384 -3.287 16.631 -4.317 25.157 -0.568 3.75 -1.608 7.144 -2.787 10.736 -1.505 5.42 -1.936 11.06 -2.589 16.634 -3.07 24.348 -5.97 47.018 -21.125 66.937l-1.562 2.125c-4.001 5.092 -8.967 8.487 -14.438 11.875l-1.862 1.155c-14.541 8.853 -30.157 15.012 -45.909 21.313a550 550 0 0 0 -14.94 6.282l-1.98 0.863a174 174 0 0 0 -10.684 5.137c-7.229 3.675 -14.462 6.125 -22.625 5.25 -7.588 -11.383 -0.326 -35.624 2 -48 0.98 -4.643 2.061 -9.256 3.249 -13.85 3.087 -11.948 4.356 -24.085 5.696 -36.322 2.445 -22.18 5.797 -44.139 9.628 -66.118 1.15 -6.7 2.001 -13.392 2.74 -20.148 1.081 -9.432 2.485 -18.773 4.125 -28.125l0.644 -3.704a833 833 0 0 1 3.129 -16.92c5.261 -27.502 5.243 -55.033 -8.024 -80.25 -3.252 -6.401 -3.252 -6.401 -2.187 -10.563 4.987 -5.163 10.562 -6.898 17.313 -9l3.214 -1.036a747 747 0 0 1 23.012 -6.956c2.235 -0.65 4.454 -1.358 6.649 -2.133 3.794 -1.18 6.86 -1.011 10.812 -0.875v-4c10.906 -4.672 21.394 -8.742 33.105 -10.82 3.2 -0.759 5.362 -2.066 8.028 -3.977 5.718 -4.033 11.974 -6.081 18.554 -8.328l3.569 -1.262c22.69 -7.923 22.69 -7.923 31.744 -7.613" fill="#F1AB2D"/><path d="m475.215 297.832 2.345 -0.01q2.445 -0.007 4.889 -0.007c2.477 -0.002 4.954 -0.02 7.432 -0.04q2.385 -0.005 4.771 -0.005l2.22 -0.022c3.433 0.015 6.09 0.24 9.412 1.238 5.174 1.412 10.18 1.363 15.52 1.463 13.548 0.392 26.873 1.75 40.321 3.363q3.491 0.408 6.982 0.812c9.918 1.155 19.83 2.351 29.733 3.626l2.193 0.28c3.177 0.41 6.351 0.827 9.524 1.264 7.552 1 15.052 1.482 22.655 1.82 9.226 0.423 18.406 1.208 27.6 2.074l2.743 0.255c21.632 2.03 43.16 4.815 64.695 7.69q6.483 0.865 12.969 1.722l2.445 0.324c26.888 3.56 53.743 6.963 80.78 9.175 13.18 1.082 26.333 2.391 39.49 3.73l7.352 0.746q11.235 1.132 22.489 2.075c3.802 0.327 7.503 0.737 11.225 1.595v6l-2.943 0.975a2429 2429 0 0 0 -11.077 3.712q-2.37 0.798 -4.744 1.583c-8.393 2.778 -16.517 5.724 -24.455 9.632 -10.261 5.033 -21.023 8.533 -31.843 12.16 -22.675 7.346 -22.675 7.346 -43.938 17.938 -8.605 2.84 -16.085 0.625 -24 -3q-3.153 -1.322 -6.312 -2.625l-2.926 -1.227A520 520 0 0 0 745 383v-4l-3.285 0.07c-11.08 0.156 -22.097 -0.266 -33.153 -0.945l-2.074 -0.12a827 827 0 0 1 -5.922 -0.372l-3.47 -0.222c-3.03 -0.402 -5.311 -1.196 -8.096 -2.411 -10.532 -1.922 -21.332 -2.308 -32 -2.937 -32.009 -1.907 -63.679 -5.661 -95.474 -9.74 -13.118 -1.68 -26.216 -3.272 -39.401 -4.323 -22.856 -1.825 -45.473 -4.827 -68.14 -8.224A4387 4387 0 0 0 442 348l-2.088 -0.307c-10.14 -1.473 -20.233 -2.272 -30.46 -2.816 -5.794 -0.36 -11.27 -0.973 -16.925 -2.307 -9.84 -2.257 -19.861 -2.898 -29.902 -3.757l-6.023 -0.538q-7.3 -0.65 -14.602 -1.275l1 -5c19.91 -6.33 39.866 -12.366 60.188 -17.262a350 350 0 0 0 27.437 -7.8c10.027 -3.296 20.006 -5.971 30.375 -7.938l2.714 -0.533c3.845 -0.547 7.626 -0.63 11.5 -0.635" fill="#039ADB"/><path d="M616 561v4l2.438 0.563c8.258 3.332 14.799 9.322 18.562 17.437 0.727 4.04 0.664 7.91 0.5 12l-0.031 3.117c-0.207 10.144 -1.408 21.787 -8.926 29.348a114 114 0 0 1 -5.293 4.472l-1.733 1.396c-7.958 5.994 -15.8 7.148 -25.58 6.98l-2.853 0.01c-10.701 -0.083 -17.954 -2.299 -25.674 -9.885 -9.992 -11.027 -14.046 -21.319 -13.722 -35.946 0.571 -11.422 6.421 -20.986 14.5 -28.804 4.774 -4.063 9.825 -6.02 15.812 -7.688l1.848 -0.582c9.972 -1.937 21.06 -0.964 30.152 3.582m-121.363 -16.762L497 546l2.582 1.855c5.806 4.361 9.91 8.784 13.418 15.145l1.64 2.813c3.184 7.464 2.395 18.636 -0.64 26.187 -3.504 8.493 -7.994 15.924 -15 22 -2.273 0.77 -2.273 0.77 -4 1l-1 4c-6.479 2.361 -12.598 2.23 -19.437 2.125l-3.374 -0.027q-4.095 -0.036 -8.189 -0.098v-4l-2.875 0.375c-6.351 -0.026 -11.638 -4.08 -16.145 -8.238 -9.907 -10.772 -12.766 -21.84 -12.414 -36.137 0.402 -6.681 2.528 -11.595 6.434 -17l1.945 -2.7c13.08 -16.145 37.327 -21.448 54.692 -9.062" fill="#263339"/><path d="M358.227 523.8c10.021 -0.367 14.844 2.352 22.336 8.825 7.669 7.21 13.36 13.91 13.746 24.629 0.371 13.213 0.435 22.356 -8.793 32.469 -2.44 2.508 -4.949 4.9 -7.516 7.277l-1.96 2.148c-2.402 2.18 -4.477 3.009 -7.54 4.04l-2.844 0.98c-5.427 1.7 -10.236 2.079 -15.906 2.144l-2.488 0.088c-9.86 0.102 -15.78 -4.326 -22.797 -10.9 -7.444 -7.55 -13.815 -14.966 -13.832 -26.008l0.055 -2.304 0.038 -2.41c0.337 -13.63 4.35 -24.076 14.274 -33.778 2.276 -1.96 4.405 -3.433 7 -5l3 1q2.368 -0.718 4.73 -1.453c6.024 -1.452 12.337 -1.366 18.497 -1.746" fill="#273339"/><path d="M752 678h2c1.41 5.864 0.636 11.246 0 17.188l-0.388 3.664c-1.678 14.445 -4.763 28.604 -7.904 42.79A186 186 0 0 0 744 751h-2c-0.43 -9.75 0.574 -18.714 2.215 -28.29 0.71 -4.14 1.245 -8.284 1.722 -12.46 0.835 -6.934 1.941 -13.805 3.125 -20.687l0.53 -3.11 0.506 -2.887 0.453 -2.595C751 679 751 679 752 678" fill="#1B8D74"/><path d="M794 719h2v30l11 -3c4.137 -0.293 4.137 -0.293 7.688 -0.187l3.636 0.082L821 746c-3.387 2.916 -7.06 4.316 -11.25 5.688l-2.022 0.664c-4.827 1.513 -8.726 2.433 -13.728 1.648 -2.54 -3.811 -2.301 -6.898 -2.25 -11.312l0.012 -2.412c0.103 -7.212 0.96 -14.174 2.238 -21.276" fill="#C18C36"/><path d="M443 346c18.208 -0.687 38.783 -0.717 56 6v2c-7.14 1.111 -13.265 0.688 -20.379 -0.434l-3.19 -0.475c-3.333 -0.499 -6.663 -1.013 -9.993 -1.529l-6.815 -1.025Q450.308 349.286 442 348z" fill="#087BA7"/><path d="m870.813 721.375 2.957 0.336L876 722c-3.52 2.999 -7.481 4.61 -11.723 6.32l-2.248 0.922q-3.543 1.447 -7.091 2.883l-4.784 1.957c-11.522 4.707 -11.522 4.707 -15.154 5.918l-2 -1v-3q5.629 -2.726 11.261 -5.444l3.826 -1.85q2.759 -1.336 5.518 -2.667l3.349 -1.619c5.068 -2.363 8.23 -3.723 13.859 -3.045" fill="#D69733"/><path d="m514.063 293.75 2.597 -0.016C519 294 519 294 522 296v3l9 1v1c-3.354 0.059 -6.708 0.094 -10.062 0.125 -0.943 0.017 -1.886 0.034 -2.858 0.05l-2.803 0.02 -2.555 0.032C510 301 510 301 506.61 300.014c-3.681 -1.034 -6.823 -1.326 -10.636 -1.428l-3.897 -0.117 -4.014 -0.094 -4.095 -0.117q-4.983 -0.141 -9.967 -0.258v-1l2.782 -0.06q5.122 -0.118 10.243 -0.257a959 959 0 0 1 4.429 -0.105 934 934 0 0 0 6.374 -0.164l3.872 -0.095c4.566 -0.441 7.681 -2.597 12.363 -2.569" fill="#1C3F54"/><path d="M913 682h3c0.754 2.102 0.754 2.102 1 5 -1.264 2.35 -2.477 4.267 -4.062 6.375l-1.248 1.727A145 145 0 0 1 902 707l-5 -1c1.337 -3.726 2.982 -6.661 5.375 -9.812l1.773 -2.395C906 692 906 692 910 692l0.375 -2.75c0.546 -2.84 1.198 -4.776 2.625 -7.25" fill="#D99B33"/><path d="m452 543 2 1 1 3 -1.253 1.238a3699 3699 0 0 0 -5.622 5.574l-1.973 1.948 -1.894 1.885 -1.746 1.73c-1.716 1.757 -1.716 1.757 -3.512 4.625h-3l-1 -3c3.67 -7.115 9.736 -14.368 17 -18" fill="#25524E"/><path d="M757 643h4q-0.678 5.72 -1.375 11.438l-0.383 3.24c-0.76 6.215 -1.77 12.235 -3.242 18.322h-2c-0.62 -22.595 -0.62 -22.595 3 -33" fill="#1B9678"/><path d="m957 458 3 1a1409 1409 0 0 1 -0.312 12.5l-0.069 3.555c-0.205 6.645 -0.824 11.89 -3.619 17.945h-2c-0.604 -11.852 1.225 -23.314 3 -35" fill="#524C3B"/><path d="M350.625 519.5c1.092 -0.01 1.092 -0.01 2.207 -0.018 4.749 0.11 8 1.046 12.168 3.518v1l-1.969 0.152c-2.99 0.234 -5.98 0.479 -8.969 0.723l-3.095 0.238c-6.157 0.512 -11.97 1.398 -17.967 2.887 1.286 -3.859 2.726 -4.92 6.148 -6.98 3.861 -1.38 7.402 -1.505 11.477 -1.52" fill="#228C74"/><path d="M694 271c19.968 0.964 19.968 0.964 29 2v2c-2.593 0.864 -4.34 1.176 -7.012 1.316l-2.295 0.127 -2.38 0.12 -2.417 0.13q-2.947 0.158 -5.896 0.307v-3h-9z" fill="#41464F"/><path d="M824 428c-0.672 3.806 -1.727 7.352 -3 11l2 2 -4 3c-4.881 -8.586 -4.881 -8.586 -4 -14 2.311 -3.98 4.937 -2.993 9 -2" fill="#CE9639"/><path d="m355 330 -1 7h5v1l-17 -1 1 -5q2.434 -0.794 4.875 -1.562l2.742 -0.88C353 329 353 329 355 330" fill="#1084B5"/><path d="M969 388h2c0.499 15.321 0.499 15.321 -3.574 19.688L966 409a572 572 0 0 1 -0.187 -7.687l-0.077 -2.186c-0.062 -4.56 0.348 -7.547 3.264 -11.127" fill="#CF9838"/><path d="m148.563 185.75 3.44 0.484C155 187 155 187 158 190h-21l1 -4c3.695 -1.271 6.738 -0.824 10.563 -0.25" fill="#4E525C"/><path d="M745 381c11.522 -0.554 11.522 -0.554 17 3l-1 4c-5.544 -1.287 -10.702 -2.919 -16 -5z" fill="#0D77A8"/><path d="M752 678h2c1.392 4.793 0.687 9.151 0 14h-1l-0.184 -1.828 -0.254 -2.422c-0.08 -0.789 -0.162 -1.578 -0.246 -2.39 -0.265 -2.359 -0.265 -2.359 -0.914 -4.594L751 679z" fill="#1F9B7B"/><path d="M694 271h7l1 3h-8z" fill="#4A4F57"/></svg>