<?xml version="1.0" encoding="UTF-8"?>
<svg version="1.1" xmlns="http://www.w3.org/2000/svg" width="1152" height="896">
<path d="M0 0 C380.16 0 760.32 0 1152 0 C1152 295.68 1152 591.36 1152 896 C771.84 896 391.68 896 0 896 C0 600.32 0 304.64 0 0 Z " fill="#F8F8F8" transform="translate(0,0)"/>
<path d="M0 0 C6.69590151 1.86376657 13.40598969 2.58902123 20.29882812 3.3359375 C36.25348645 5.20789337 48.30206742 11.39806823 58.76171875 23.83203125 C68.46396654 36.93636593 71.71957295 52.37669034 74.00390625 68.20703125 C74.18115234 69.39748047 74.35839844 70.58792969 74.54101562 71.81445312 C74.97206908 74.71532634 75.39708305 77.61694337 75.81640625 80.51953125 C79.38024352 79.56612518 82.9422204 78.60594049 86.50390625 77.64453125 C87.51130859 77.37511719 88.51871094 77.10570312 89.55664062 76.828125 C90.53310547 76.56386719 91.50957031 76.29960937 92.515625 76.02734375 C93.41112061 75.7864502 94.30661621 75.54555664 95.22924805 75.29736328 C97.83296684 74.51455229 100.29554546 73.5338058 102.81640625 72.51953125 C105.48003733 71.81757331 108.13609683 71.14879409 110.81640625 70.51953125 C119.04292035 68.55957091 127.05810994 66.5690827 134.96484375 63.5234375 C139.07094079 62.07786635 143.27044138 61.03013845 147.48291016 59.94921875 C150.65217681 59.12674751 153.72298924 58.26006144 156.75390625 57.01953125 C161.85410615 54.97724341 167.24036486 53.85789008 172.56640625 52.5625 C176.68533831 51.56016355 180.78414815 50.491055 184.87890625 49.39453125 C186.04550781 49.08257812 187.21210938 48.770625 188.4140625 48.44921875 C195.13959815 46.6314152 195.13959815 46.6314152 201.75390625 44.45703125 C210.40453132 41.80888072 219.60489009 42.27915077 228.56640625 42.26953125 C229.67503525 42.26752213 229.67503525 42.26752213 230.80606079 42.26547241 C240.93402312 42.26944261 250.65633354 42.86825481 260.6328125 44.6640625 C267.19313257 45.82315279 273.81318959 46.3902411 280.44140625 47.01953125 C290.45124887 47.98317817 300.45066804 48.9982151 310.44140625 50.14453125 C311.53146973 50.26763672 312.6215332 50.39074219 313.74462891 50.51757812 C314.75058105 50.63423828 315.7565332 50.75089844 316.79296875 50.87109375 C317.67033691 50.97244629 318.54770508 51.07379883 319.45166016 51.17822266 C321.81640625 51.51953125 321.81640625 51.51953125 323.703125 52.01733398 C326.66817307 52.72194395 329.61719335 52.93548247 332.65234375 53.203125 C333.31995224 53.26287506 333.98756073 53.32262512 334.67539978 53.38418579 C336.10554747 53.51177177 337.53582513 53.63790772 338.96621704 53.76272583 C341.20717717 53.95840838 343.44773418 54.15823351 345.68823242 54.35913086 C352.28064872 54.94890753 358.87406104 55.52601988 365.46875 56.08984375 C382.17939385 57.53371487 382.17939385 57.53371487 390.0859375 59.0546875 C397.21696042 60.26869569 404.34786131 60.68104252 411.56640625 60.95703125 C418.29812358 61.25379195 424.81701923 61.84384564 431.46484375 62.98828125 C436.26275862 63.7487899 441.08010696 64.21354568 445.91235352 64.69897461 C450.56987081 65.17066208 455.21974004 65.67914972 459.8671875 66.2421875 C462.0168911 66.50160043 464.16663152 66.76070842 466.31640625 67.01953125 C467.40147461 67.15037109 468.48654297 67.28121094 469.60449219 67.41601562 C475.43026753 68.09378779 481.23984994 68.64589677 487.09375 69.015625 C488.29128906 69.09167969 489.48882813 69.16773438 490.72265625 69.24609375 C493.00435104 69.38238968 495.28695839 69.50448594 497.5703125 69.609375 C511.83993895 70.45082717 523.43954554 76.19843635 533.28515625 86.578125 C541.29701942 96.73602294 542.16402442 108.17055611 542.12890625 120.64453125 C542.14501953 121.76601563 542.16113281 122.8875 542.17773438 124.04296875 C542.18235877 132.14491426 541.01302917 139.59756414 539.25619507 147.4921875 C538.4720181 151.10709585 537.7893099 154.74145935 537.09765625 158.375 C536.9529187 159.13034531 536.80818115 159.88569061 536.65905762 160.66392517 C536.20974339 163.01129485 535.76264784 165.35907561 535.31640625 167.70703125 C535.1616684 168.52068146 535.00693054 169.33433167 534.84750366 170.17263794 C532.98192584 180.01027547 531.1975066 189.83850124 529.80639648 199.75634766 C528.98721064 205.56420555 527.96140148 211.3177955 526.87890625 217.08203125 C525.33152275 225.32764742 524.05462847 233.58822226 522.87890625 241.89453125 C521.4684339 251.80809653 519.66540184 261.56773743 517.53369141 271.3503418 C516.38936381 276.63161401 515.42270051 281.8448401 514.75390625 287.20703125 C512.67988376 302.55850129 506.0827928 318.52793462 494.81640625 329.51953125 C494.15640625 329.51953125 493.49640625 329.51953125 492.81640625 329.51953125 C492.81640625 330.17953125 492.81640625 330.83953125 492.81640625 331.51953125 C492.15640625 331.51953125 491.49640625 331.51953125 490.81640625 331.51953125 C490.81640625 332.17953125 490.81640625 332.83953125 490.81640625 333.51953125 C490.15640625 333.51953125 489.49640625 333.51953125 488.81640625 333.51953125 C488.81640625 334.17953125 488.81640625 334.83953125 488.81640625 335.51953125 C485.16898964 338.9458923 481.41656263 340.6482812 476.81640625 342.51953125 C475.05296875 343.41671875 475.05296875 343.41671875 473.25390625 344.33203125 C469.45539641 346.24986988 465.58877125 348.00113626 461.69140625 349.70703125 C460.53382813 350.21621094 459.37625 350.72539062 458.18359375 351.25 C455.02017955 352.44270257 452.16062842 353.09769168 448.81640625 353.51953125 C448.81640625 354.17953125 448.81640625 354.83953125 448.81640625 355.51953125 C446.27836167 356.67400996 443.73646996 357.81821552 441.19140625 358.95703125 C440.47855469 359.28251953 439.76570313 359.60800781 439.03125 359.94335938 C434.95468839 361.75724229 431.29854118 363.01758869 426.81640625 363.51953125 C426.81640625 364.17953125 426.81640625 364.83953125 426.81640625 365.51953125 C425.40414699 366.1954844 423.9863772 366.85993184 422.56640625 367.51953125 C421.7775 367.89078125 420.98859375 368.26203125 420.17578125 368.64453125 C417.81640625 369.51953125 417.81640625 369.51953125 413.81640625 369.51953125 C413.81640625 370.17953125 413.81640625 370.83953125 413.81640625 371.51953125 C413.28273438 371.66648437 412.7490625 371.8134375 412.19921875 371.96484375 C407.77477612 373.29676939 404.07003846 374.86951565 400.19140625 377.39453125 C380.11287537 389.97498575 353.52582989 388.16200675 331.03076172 384.80004883 C320.77281027 383.28273051 310.47294956 382.45550784 300.14233398 381.61010742 C298.76411287 381.49584891 297.38593837 381.3810266 296.0078125 381.265625 C295.33312424 381.20928391 294.65843597 381.15294281 293.96330261 381.09489441 C287.78677663 380.55798388 281.65548029 379.75954005 275.51538086 378.90649414 C268.10373067 377.93937649 268.10373067 377.93937649 261.19921875 380.0234375 C260.45414063 380.70277344 259.7090625 381.38210938 258.94140625 382.08203125 C255.65626859 384.93517833 252.39995121 387.61062093 248.81640625 390.08203125 C247.56150391 390.94828125 247.56150391 390.94828125 246.28125 391.83203125 C245.46785156 392.38890625 244.65445312 392.94578125 243.81640625 393.51953125 C231.70553645 401.83898385 219.85791794 410.56977852 208.25390625 419.58203125 C202.35590597 424.15676224 196.32466053 428.53176003 190.25756836 432.87915039 C185.94415149 435.97106868 181.67610083 439.11027585 177.45629883 442.32910156 C173.91200404 444.90197359 171.15920814 444.90047878 166.81640625 444.51953125 C163.59115593 441.39998084 163.38360387 438.62599554 163.19140625 434.26171875 C163.09363892 432.38250732 163.09363892 432.38250732 162.99389648 430.46533203 C162.96512421 429.80180725 162.93635193 429.13828247 162.90670776 428.45465088 C162.75302221 424.94850116 162.55311745 421.44508431 162.3515625 417.94140625 C162.29114525 416.87643417 162.29114525 416.87643417 162.22950745 415.78994751 C161.82685863 409.04320579 161.08771241 402.3511238 160.25390625 395.64453125 C159.05327945 385.93878569 158.21106374 376.29070636 157.81640625 366.51953125 C156.72585938 366.44476562 155.6353125 366.37 154.51171875 366.29296875 C130.02024057 364.28924513 112.81412879 355.55863912 96.62890625 336.95703125 C94.81640625 334.51953125 94.81640625 334.51953125 94.81640625 332.51953125 C94.15640625 332.51953125 93.49640625 332.51953125 92.81640625 332.51953125 C87.7836399 319.27769932 84.10303412 306.16466996 81.36181641 292.27001953 C80.85873016 289.73296957 80.33299181 287.20211663 79.796875 284.671875 C77.51650856 273.78984884 75.6829035 262.84780307 73.88720703 251.87670898 C72.10516466 241.06911441 70.17450582 230.29193375 68.19140625 219.51953125 C68.045289 218.72178284 67.89917175 217.92403442 67.74862671 217.10211182 C66.37659611 209.62110119 64.98075038 202.15859869 63.32421875 194.734375 C61.25617834 185.25415013 59.83025841 175.66288295 58.31640625 166.08203125 C56.377883 153.83677945 54.33758573 141.66006353 51.81640625 129.51953125 C50.46364885 122.85676538 49.13642372 116.18885134 47.81640625 109.51953125 C47.63799194 108.61900024 47.45957764 107.71846924 47.27575684 106.79064941 C45.2100416 96.31422325 43.28355877 85.8850428 42.06640625 75.26953125 C40.40053352 60.78180385 37.28497834 50.2617629 26.1328125 40.25390625 C22.22696532 37.32946081 18.22655275 36.2737655 13.45703125 35.51953125 C12.43182373 35.35582031 11.40661621 35.19210938 10.3503418 35.0234375 C8.7247937 34.77400391 8.7247937 34.77400391 7.06640625 34.51953125 C5.94983643 34.34292969 4.8332666 34.16632813 3.68286133 33.984375 C-2.69959568 32.99264008 -9.07125318 32.17048977 -15.49609375 31.51953125 C-31.71854738 29.77121269 -31.71854738 29.77121269 -36.76953125 25.03125 C-40.54161752 19.64064444 -40.77264031 13.85178177 -40.18359375 7.51953125 C-38.68359375 3.89453125 -38.68359375 3.89453125 -37.18359375 1.51953125 C-36.52359375 1.51953125 -35.86359375 1.51953125 -35.18359375 1.51953125 C-35.18359375 0.85953125 -35.18359375 0.19953125 -35.18359375 -0.48046875 C-25.20526867 -6.95289583 -10.68250852 -3.08429895 0 0 Z " fill="#282E36" transform="translate(299.18359375,158.48046875)"/>
<path d="M0 0 C10.72638554 -0.30391274 20.97822616 0.39600685 31.58856201 1.96539307 C34.83322926 2.44486358 38.0813997 2.89836654 41.32946777 3.35412598 C42.95765584 3.58293184 44.58566984 3.81297997 46.21350098 4.04431152 C63.03961173 6.43513903 79.91047316 8.22173131 96.83007812 9.80078125 C103.87541597 10.46878365 110.90682887 11.20075411 117.93359375 12.04296875 C118.68158737 12.1325737 119.42958099 12.22217865 120.20024109 12.3144989 C123.79865992 12.74802134 127.39584709 13.18996664 130.99194336 13.64233398 C137.98175753 14.50617326 144.91232509 15.14804486 151.9453125 15.4921875 C157.09374479 15.74501391 161.95792474 16.23125209 166.95507812 17.52734375 C170.99012144 18.45998986 175.13017171 18.66637997 179.25 19 C186.16886081 19.60819846 192.99764041 20.37806525 199.85546875 21.49609375 C210.25880223 23.16321179 220.56214139 24.24444227 231.09033203 24.57055664 C235.07714407 24.72296037 238.84573332 25.11787058 242.7578125 25.91015625 C248.12161487 26.94782861 253.47444921 27.4842037 258.91015625 27.96484375 C259.8092421 28.04485626 260.70832794 28.12486877 261.63465881 28.20730591 C265.39096909 28.53758231 269.14775483 28.86122541 272.90551758 29.17456055 C275.67878483 29.40792464 278.45066252 29.65436732 281.22265625 29.90234375 C282.05523453 29.9680809 282.88781281 30.03381805 283.74562073 30.10154724 C297.41329701 31.34838666 307.53694771 36.33446102 316.52734375 46.7734375 C324.00142956 56.02010601 325.09550363 65.29645213 324 77 C323.39226647 81.57168916 322.59568957 86.10833386 321.78173828 90.6472168 C319.87371273 101.33497308 318.41982269 112.07414972 316.98452759 122.83358765 C316.77445287 124.40810013 316.56310946 125.982444 316.3503418 127.55659485 C316.15486556 129.0031807 315.96242269 130.45018062 315.7734375 131.89762878 C315.11265221 136.77469559 315.11265221 136.77469559 314 139 C313.66119841 141.12971528 313.36829326 143.26680397 313.09765625 145.40625 C312.84532227 147.35917969 312.84532227 147.35917969 312.58789062 149.3515625 C312.41235122 150.73432311 312.23722366 152.11713607 312.0625 153.5 C311.07832481 161.2875777 310.06136126 169.01834909 308.4309082 176.70214844 C307.67566053 180.72956551 307.39478432 184.79493196 307.0625 188.875 C306.4620385 195.53421651 305.54162881 201.80457315 303.72265625 208.2578125 C302.925712 211.28189285 302.4171791 214.28541337 301.9375 217.375 C301.30507958 221.4246165 300.49269482 225.16164189 299 229 C298.34 229 297.68 229 297 229 C296.690625 230.0828125 296.690625 230.0828125 296.375 231.1875 C294.52471012 234.97218384 292.39759562 236.52258653 289 239 C288.34 239 287.68 239 287 239 C287 239.66 287 240.32 287 241 C282.35447592 243.71167304 279.04331584 244.3612319 273.6875 244.25 C272.3778125 244.22292969 271.068125 244.19585938 269.71875 244.16796875 C258.30484988 243.65242494 258.30484988 243.65242494 255 242 C253.24525247 241.80162137 251.4845038 241.65509871 249.72265625 241.53515625 C248.65080078 241.45716797 247.57894531 241.37917969 246.47460938 241.29882812 C244.23512698 241.14371801 241.99554587 240.99002527 239.75585938 240.83789062 C233.65085517 240.391183 227.76731529 239.64672261 221.76196289 238.47485352 C216.7711222 237.61679773 211.73428665 237.30228973 206.6875 236.9375 C192.92364759 235.91009337 192.92364759 235.91009337 186.45703125 234.41015625 C178.33288884 233.34213753 173.63664389 236.78775134 167.4375 241.5 C165.00079569 243.3936413 162.58465044 245.30844675 160.18359375 247.24707031 C157.32525002 249.54167094 154.39945616 251.71588985 151.4375 253.875 C150.61121094 254.49117187 149.78492188 255.10734375 148.93359375 255.7421875 C147 257 147 257 145 257 C145 257.66 145 258.32 145 259 C142.90754003 260.64924439 140.81586413 262.17899934 138.625 263.6875 C137.98739746 264.13448242 137.34979492 264.58146484 136.69287109 265.04199219 C134.79955683 266.36764525 132.90051191 267.68469421 131 269 C129.20777545 270.24919999 127.41602509 271.49908091 125.625 272.75 C124.84125 273.29140625 124.0575 273.8328125 123.25 274.390625 C120.32874145 276.48013633 117.54689812 278.73109774 114.7890625 281.03125 C113 282 113 282 110.7734375 281.65625 C109.89558594 281.33140625 109.89558594 281.33140625 109 281 C107.57305754 267.96017474 106.52426487 254.9194273 105.69775391 241.82739258 C105.58246338 240.04498169 105.58246338 240.04498169 105.46484375 238.2265625 C105.399021 237.17033691 105.33319824 236.11411133 105.26538086 235.02587891 C104.99808067 231.97811571 104.54291677 229.00982476 104 226 C102.948125 225.92652344 102.948125 225.92652344 101.875 225.8515625 C100.92625 225.77679688 99.9775 225.70203125 99 225.625 C97.6078125 225.52058594 97.6078125 225.52058594 96.1875 225.4140625 C93 225 93 225 89.1484375 223.98828125 C84.95459475 222.89051053 80.94172955 222.68201133 76.625 222.5625 C70.02895674 222.27418757 64.1786869 221.48358983 58 219 C56.4840625 218.4121875 56.4840625 218.4121875 54.9375 217.8125 C42.78989752 210.31717081 36.41686059 199.66744237 33 186 C32.40768855 182.48588374 31.93427371 178.97396128 31.49609375 175.4375 C30.88717649 171.21823077 29.82271219 167.20652196 28.72265625 163.09375 C27.63839704 158.4519484 27.08663755 153.76127754 26.52734375 149.03125 C26.18536817 146.11305743 26.18536817 146.11305743 25.02026367 144.19042969 C23.72954213 141.41934722 23.47600146 138.95928627 23.1484375 135.921875 C23.01953125 134.76171875 22.890625 133.6015625 22.7578125 132.40625 C22.63148438 131.1996875 22.50515625 129.993125 22.375 128.75 C22.2409375 127.52796875 22.106875 126.3059375 21.96875 125.046875 C21.63898972 122.03192384 21.3163462 119.01638324 21 116 C20.34 116 19.68 116 19 116 C18.95101563 115.43152344 18.90203125 114.86304688 18.8515625 114.27734375 C18.36893311 109.29294707 17.402282 104.82034437 16 100 C15.78840636 98.54496719 15.60101101 97.08621748 15.4375 95.625 C15.40206859 92.1963063 15.40206859 92.1963063 14 91 C13.72572321 89.30634549 13.5085731 87.60336133 13.31640625 85.8984375 C13.19330078 84.85042969 13.07019531 83.80242187 12.94335938 82.72265625 C12.69213539 80.51446182 12.44210889 78.30613079 12.19335938 76.09765625 C11.53518746 70.51172049 10.56496026 65.4089311 9 60 C8.038413 54.4373011 7.28497672 48.84184593 6.5 43.25195312 C6.335 42.12337891 6.17 40.99480469 6 39.83203125 C5.855625 38.80827393 5.71125 37.7845166 5.5625 36.72973633 C5.02837515 34.13770077 4.22637482 32.31791904 3 30 C2.58095346 27.6774414 2.2326714 25.34152777 1.9375 23 C1.39877436 18.43642203 1.39877436 18.43642203 0.4453125 13.953125 C-0.58319812 9.4421135 -0.05005651 4.60519926 0 0 Z " fill="#23B58B" transform="translate(378,273)"/>
<path d="M0 0 C0.25053675 8.62959909 -0.36801797 16.54089315 -2 25 C-2.32003941 26.78734459 -2.6375176 28.57514874 -2.953125 30.36328125 C-3.30173162 32.32558335 -3.65069318 34.28782242 -4 36.25 C-4.1659668 37.18513428 -4.33193359 38.12026855 -4.50292969 39.08374023 C-4.74897949 40.44221069 -4.74897949 40.44221069 -5 41.828125 C-5.144375 42.6315332 -5.28875 43.43494141 -5.4375 44.26269531 C-5.88811126 46.45551366 -6.42261701 48.63102279 -6.98413086 50.7980957 C-8.04143935 54.97026545 -8.68696227 59.1394144 -9.25390625 63.40234375 C-9.35968491 64.16551407 -9.46546356 64.92868439 -9.57444763 65.71498108 C-9.90793211 68.12194081 -10.23589433 70.52959787 -10.5625 72.9375 C-10.99652892 76.13479377 -11.43603633 79.33126409 -11.87890625 82.52734375 C-11.97683975 83.2626683 -12.07477325 83.99799286 -12.17567444 84.75559998 C-12.88723467 89.88723467 -12.88723467 89.88723467 -14 91 C-14.3075795 93.14087511 -14.56915995 95.28837529 -14.8125 97.4375 C-15.62703066 104.14108735 -16.92412992 110.65290929 -18.50317383 117.21655273 C-19.76444682 122.55728461 -20.63013448 127.91054991 -21.4375 133.33740234 C-22.39610742 139.57916821 -23.50397391 145.7946305 -24.60449219 152.01269531 C-25.00187921 154.26063031 -25.39557823 156.50919147 -25.7890625 158.7578125 C-26.50629741 162.8422742 -27.25126235 166.92120105 -28 171 C-28.155896 171.91692627 -28.31179199 172.83385254 -28.47241211 173.77856445 C-29.48385555 179.16086797 -31.45828552 183.19141666 -34.5625 187.6875 C-35.00650146 188.33960449 -35.45050293 188.99170898 -35.90795898 189.66357422 C-39.56499708 194.81398414 -43.35018703 198.11989996 -49 201 C-49.69480469 201.42152344 -50.38960937 201.84304688 -51.10546875 202.27734375 C-56.22328541 205.34430492 -61.54220361 207.4093478 -67.125 209.4765625 C-72.8103187 211.64946949 -78.31794527 214.24738358 -83.8449707 216.79003906 C-98.79197365 223.63127592 -98.79197365 223.63127592 -104 223 C-105.64749017 221.35250983 -105.1662645 219.47450159 -105.1796875 217.20703125 C-105.12062596 210.90679397 -104.22261161 204.88005343 -103.125 198.6875 C-102.95097656 197.64271484 -102.77695312 196.59792969 -102.59765625 195.52148438 C-101.90932673 191.51132759 -101.23328395 187.68385043 -99.91796875 183.828125 C-98.65399005 179.93399488 -98.47791215 176.13024034 -98.1875 172.0625 C-97.42576224 162.85630777 -96.08904986 153.79519827 -94.5625 144.6875 C-92.78851974 134.09572768 -91.20140427 123.50945567 -89.98852539 112.83666992 C-89.2905512 106.81098956 -88.25179263 100.93367983 -87 95 C-83.10665479 75.75304221 -80.48931486 54.67860361 -91.20703125 37.0859375 C-92 35 -92 35 -91.65625 32.9140625 C-89.01357119 29.86002331 -85.43867789 29.12355598 -81.6875 28 C-80.8823999 27.74653809 -80.0772998 27.49307617 -79.24780273 27.23193359 C-77.61290662 26.71927329 -75.97592734 26.21320815 -74.33691406 25.71386719 C-72.22622701 25.06910654 -70.12389809 24.40374841 -68.0234375 23.7265625 C-59.45700355 21 -59.45700355 21 -56 21 C-56 20.34 -56 19.68 -56 19 C-42.74180328 13.63114754 -42.74180328 13.63114754 -35.90234375 12.5546875 C-33.90060456 12.1015862 -33.90060456 12.1015862 -32.25219727 10.60668945 C-29.61380706 8.72449477 -27.12364899 7.79894667 -24.0625 6.73828125 C-22.92039062 6.34189453 -21.77828125 5.94550781 -20.6015625 5.53710938 C-19.41304687 5.13298828 -18.22453125 4.72886719 -17 4.3125 C-15.81148437 3.89677734 -14.62296875 3.48105469 -13.3984375 3.05273438 C-4.51593288 0 -4.51593288 0 0 0 Z " fill="#F2AC2D" transform="translate(813,274)"/>
<path d="M0 0 C2.79804841 1.94729045 5.41145635 4.00116643 8.015625 6.19921875 C9.00175781 6.98232422 9.00175781 6.98232422 10.0078125 7.78125 C15.80145182 12.86677785 19.32418393 20.0738535 22.015625 27.19921875 C22.015625 29.17921875 22.015625 31.15921875 22.015625 33.19921875 C14.755625 33.19921875 7.495625 33.19921875 0.015625 33.19921875 C-0.974375 30.55921875 -1.964375 27.91921875 -2.984375 25.19921875 C-4.68086837 22.96661706 -4.68086837 22.96661706 -6.734375 21.38671875 C-7.68570313 20.57267578 -7.68570313 20.57267578 -8.65625 19.7421875 C-14.22296814 16.05283571 -19.30250378 14.68629867 -25.921875 14.82421875 C-26.62626709 14.83437012 -27.33065918 14.84452148 -28.05639648 14.85498047 C-35.93943291 15.09056756 -41.51978389 17.02367769 -47.37890625 22.38671875 C-55.24599449 31.26829769 -55.64333326 40.85315553 -54.984375 52.19921875 C-53.61519975 59.04509502 -49.29227532 66.58188709 -43.984375 71.19921875 C-42.994375 71.52921875 -42.004375 71.85921875 -40.984375 72.19921875 C-40.984375 72.85921875 -40.984375 73.51921875 -40.984375 74.19921875 C-32.82099951 77.23675382 -23.75356461 77.57373134 -15.546875 74.51171875 C-8.46820611 71.23052053 -4.46885603 67.16818081 -0.984375 60.19921875 C-0.489375 58.71421875 -0.489375 58.71421875 0.015625 57.19921875 C7.275625 57.19921875 14.535625 57.19921875 22.015625 57.19921875 C22.015625 54.88921875 22.015625 52.57921875 22.015625 50.19921875 C24.52318912 37.9416553 30.02406351 29.59898422 40.015625 22.19921875 C48.93408833 16.66708924 58.7038561 16.25318491 69.015625 17.19921875 C72.98190451 18.4188619 76.43060448 20.12800395 80.015625 22.19921875 C80.75167969 22.60269531 81.48773437 23.00617187 82.24609375 23.421875 C83.85341436 24.31696971 85.43805379 25.25267602 87.015625 26.19921875 C87.345625 23.88921875 87.675625 21.57921875 88.015625 19.19921875 C93.295625 19.19921875 98.575625 19.19921875 104.015625 19.19921875 C104.015625 44.27921875 104.015625 69.35921875 104.015625 95.19921875 C99.065625 95.19921875 94.115625 95.19921875 89.015625 95.19921875 C86.8636813 91.9713032 86.81476057 90.91521066 87.015625 87.19921875 C86.37496094 87.59753906 85.73429688 87.99585938 85.07421875 88.40625 C84.20925781 88.93605469 83.34429688 89.46585938 82.453125 90.01171875 C81.60621094 90.53378906 80.75929688 91.05585937 79.88671875 91.59375 C73.5451662 95.13984265 68.51323385 96.75921645 61.328125 96.69921875 C60.54010498 96.69422363 59.75208496 96.68922852 58.94018555 96.68408203 C49.66057167 96.40956525 41.33077072 93.39943073 34.53515625 86.91796875 C28.16973083 79.7180017 24.3348801 71.47623913 22.015625 62.19921875 C20.365625 66.15921875 18.715625 70.11921875 17.015625 74.19921875 C16.355625 74.19921875 15.695625 74.19921875 15.015625 74.19921875 C14.83 74.87984375 14.644375 75.56046875 14.453125 76.26171875 C9.67778216 86.02002804 -1.08300777 91.90264484 -10.93896484 95.37670898 C-16.02195169 96.74953107 -20.93761591 96.7396116 -26.171875 96.63671875 C-27.19990234 96.64380859 -28.22792969 96.65089844 -29.28710938 96.65820312 C-35.58822386 96.60579462 -40.2405637 95.7870219 -45.984375 93.19921875 C-47.00402344 92.77382813 -48.02367187 92.3484375 -49.07421875 91.91015625 C-61.30136868 86.17396246 -70.16031935 76.80812416 -75.125 64.1953125 C-77.33023838 57.95035273 -77.54631912 52.20817123 -77.421875 45.63671875 C-77.42896484 44.57775391 -77.43605469 43.51878906 -77.44335938 42.42773438 C-77.33285172 28.63127919 -72.64450026 17.95378001 -63.171875 7.88671875 C-46.81414232 -7.46631634 -19.62718484 -11.84310499 0 0 Z " fill="#2D333E" transform="translate(640.984375,643.80078125)"/>
<path d="M0 0 C7.47038532 0.92012802 14.95240754 1.74045416 22.43237305 2.57836914 C23.40940186 2.69011475 24.38643066 2.80186035 25.39306641 2.91699219 C26.65352783 3.05947388 26.65352783 3.05947388 27.93945312 3.20483398 C29.61309205 3.43188067 31.27892488 3.72135501 32.93408203 4.05761719 C35.5470643 4.57129851 38.0918242 4.68505451 40.74926758 4.76953125 C67.59422725 5.65755506 94.51129782 10.1205365 121.13525391 13.47949219 C121.86297501 13.57101059 122.59069611 13.66252899 123.34046936 13.75682068 C126.56929873 14.16595196 129.7919301 14.59679307 133.01220703 15.0690918 C135.93555254 15.4744206 138.81704216 15.76126991 141.76025391 15.95996094 C142.77249023 16.03158447 143.78472656 16.10320801 144.82763672 16.17700195 C146.4417041 16.28999634 146.4417041 16.28999634 148.08837891 16.40527344 C158.76556319 17.18391327 169.38542018 18.25827181 180.01904297 19.49023438 C186.98860703 20.29164153 193.92502178 20.94774692 200.93212891 21.31933594 C203.33837891 21.53027344 203.33837891 21.53027344 206.33837891 22.53027344 C206.33837891 23.52027344 206.33837891 24.51027344 206.33837891 25.53027344 C205.74412109 25.72137695 205.14986328 25.91248047 204.53759766 26.109375 C201.80235682 26.99311728 199.07039767 27.88662244 196.33837891 28.78027344 C195.40380859 29.080625 194.46923828 29.38097656 193.50634766 29.69042969 C188.54497976 31.32108906 183.94448174 33.13793445 179.32275391 35.56152344 C175.62918194 37.36468456 171.72871219 38.59796927 167.83837891 39.90527344 C166.07621674 40.51075531 164.31450371 41.11754577 162.55322266 41.72558594 C161.68036621 42.02625977 160.80750977 42.32693359 159.90820312 42.63671875 C156.05663346 43.9759497 152.22454259 45.3635339 148.40087891 46.78027344 C147.75763672 47.01407715 147.11439453 47.24788086 146.45166016 47.48876953 C142.81483422 48.84577964 139.64695602 50.52028461 136.33837891 52.53027344 C129.79034926 54.30601029 126.53272774 53.06185612 120.68212891 49.81152344 C117.99304464 48.3414907 115.27814693 47.38125892 112.33837891 46.53027344 C112.33837891 45.87027344 112.33837891 45.21027344 112.33837891 44.53027344 C111.71906494 44.50521729 111.09975098 44.48016113 110.46166992 44.4543457 C107.60793003 44.33704686 104.7544145 44.21493758 101.90087891 44.09277344 C100.44004883 44.03379883 100.44004883 44.03379883 98.94970703 43.97363281 C82.82275391 43.27246094 82.82275391 43.27246094 79.33837891 41.53027344 C77.89627998 41.34771043 76.44745923 41.21679996 74.99755859 41.11303711 C73.6397377 41.01215034 73.6397377 41.01215034 72.25448608 40.90922546 C71.26638947 40.83960098 70.27829285 40.7699765 69.26025391 40.69824219 C67.14352305 40.5404629 65.02682508 40.38224204 62.91015625 40.22363281 C61.79678894 40.14137451 60.68342163 40.05911621 59.53631592 39.97436523 C43.04486584 38.7470891 26.64493235 37.41687126 10.27612305 35.02880859 C0.05124026 33.55615069 -10.1921875 32.56047486 -20.47412109 31.59277344 C-33.93640686 30.32386615 -47.2597723 28.66101998 -60.60876465 26.50866699 C-69.80259883 25.02928194 -78.79178024 23.94671551 -88.10302734 23.76855469 C-91.36609021 23.550062 -94.18280344 22.88763114 -97.32543945 22.03588867 C-102.3576564 20.94677578 -107.53546671 20.76345834 -112.66162109 20.40527344 C-113.81791016 20.31890625 -114.97419922 20.23253906 -116.16552734 20.14355469 C-118.99716414 19.93293707 -121.82910675 19.72867703 -124.66162109 19.53027344 C-124.66162109 18.87027344 -124.66162109 18.21027344 -124.66162109 17.53027344 C-118.50487089 15.44487801 -112.32407209 13.46468493 -106.09912109 11.59277344 C-105.23432129 11.33262451 -104.36952148 11.07247559 -103.47851562 10.80444336 C-96.74891375 8.80386791 -89.98260041 7.05848011 -83.16162109 5.40136719 C-77.61968341 4.02206796 -72.17913393 2.38874872 -66.77490234 0.54589844 C-44.68657325 -6.65983 -22.51687632 -2.78463846 0 0 Z " fill="#039BDC" transform="translate(567.66162109375,232.4697265625)"/>
<path d="M0 0 C1.98 0 3.96 0 6 0 C6 6.93 6 13.86 6 21 C12.93 21 19.86 21 27 21 C27 26.28 27 31.56 27 37 C19.74 37 12.48 37 5 37 C5.07404901 41.76977754 5.15691368 46.53769546 5.26245117 51.30664062 C5.29566835 52.92828686 5.32371035 54.55004781 5.34643555 56.171875 C5.38004155 58.50570477 5.4323576 60.83848635 5.48828125 63.171875 C5.49467117 63.89493835 5.5010611 64.61800171 5.50764465 65.36297607 C5.6301741 69.57479725 6.18225789 71.86032394 9 75 C9 75.66 9 76.32 9 77 C10.21558594 77.06058594 11.43117188 77.12117187 12.68359375 77.18359375 C14.26824228 77.26798332 15.85287702 77.3526321 17.4375 77.4375 C18.23994141 77.47681641 19.04238281 77.51613281 19.86914062 77.55664062 C25.88671875 77.88671875 25.88671875 77.88671875 27 79 C27.08631874 80.34267413 27.10706473 81.68974322 27.09765625 83.03515625 C27.09443359 83.84404297 27.09121094 84.65292969 27.08789062 85.48632812 C27.07951172 86.33646484 27.07113281 87.18660156 27.0625 88.0625 C27.05798828 88.91650391 27.05347656 89.77050781 27.04882812 90.65039062 C27.03700373 92.76695663 27.01906769 94.88348685 27 97 C2.31203491 97.68436864 2.31203491 97.68436864 -6.3125 90.9375 C-14.20343487 82.96658944 -15.52172037 75.48144822 -15.47743225 64.61042786 C-15.43892555 61.8647254 -15.37637031 59.12021811 -15.3125 56.375 C-15.28738118 54.49351928 -15.26457435 52.61200619 -15.24414062 50.73046875 C-15.18943969 46.15283737 -15.10336718 41.5767805 -15 37 C-19.29 37 -23.58 37 -28 37 C-28 56.47 -28 75.94 -28 96 C-32.95 96 -37.9 96 -43 96 C-45 92 -45 92 -45 89 C-45.46148437 89.39832031 -45.92296875 89.79664063 -46.3984375 90.20703125 C-55.60132759 97.68210601 -64.391713 98.56844704 -76 98 C-76.7321875 97.99226562 -77.464375 97.98453125 -78.21875 97.9765625 C-86.49271928 97.53573627 -93.85290834 92.62633905 -99.375 86.75 C-109.14361622 74.89527272 -110.13608099 62.81548671 -109 48 C-108.20703136 44.22093803 -107.02487446 41.27386245 -105 38 C-104.57589844 37.30003906 -104.15179688 36.60007812 -103.71484375 35.87890625 C-97.83021597 27.20768592 -89.28669177 21.13617332 -79 19 C-65.46274214 17.81934718 -56.03172951 19.94136071 -45 28 C-44.67 25.69 -44.34 23.38 -44 21 C-38.72 21 -33.44 21 -28 21 C-28 24.3 -28 27.6 -28 31 C-27.34 31 -26.68 31 -26 31 C-25.73574219 30.40703125 -25.47148437 29.8140625 -25.19921875 29.203125 C-23.95629575 26.91970946 -22.69598354 25.52573277 -20.8125 23.75 C-17.66679178 20.69509573 -14.76637357 17.51304976 -11.90625 14.19140625 C-8.93533036 10.77606626 -5.87289817 7.44388511 -2.8203125 4.1015625 C-0.96323333 2.13276579 -0.96323333 2.13276579 0 0 Z " fill="#2B313C" transform="translate(459,642)"/>
<path d="M0 0 C8.25 0 16.5 0 25 0 C25.7425 1.93875 26.485 3.8775 27.25 5.875 C29.73790422 12.34355096 32.29717225 18.78027333 34.890625 25.20703125 C37.45426262 31.58353668 39.94482108 37.98753206 42.4284668 44.39550781 C43.96622889 48.35885483 45.52139895 52.31270311 47.125 56.25 C48.6747408 60.08808147 50.06371571 63.97056044 51.4375 67.875 C54.60952947 76.83646975 58.24965476 85.56152018 62.30078125 94.16015625 C63 96 63 96 63 99 C55.41 99 47.82 99 40 99 C39.01 96.23625 38.02 93.4725 37 90.625 C36.68675781 89.75568848 36.37351562 88.88637695 36.05078125 87.99072266 C35.80714844 87.3054248 35.56351563 86.62012695 35.3125 85.9140625 C35.06113281 85.2123291 34.80976562 84.5105957 34.55078125 83.78759766 C34 82 34 82 34 80 C20.14 80 6.28 80 -8 80 C-8.33 81.65 -8.66 83.3 -9 85 C-9.82404174 87.45591456 -10.66939699 89.88281425 -11.5625 92.3125 C-12.7690625 95.6228125 -12.7690625 95.6228125 -14 99 C-21.59 99 -29.18 99 -37 99 C-33.63518241 88.90554723 -33.63518241 88.90554723 -32.203125 85.44921875 C-31.88770752 84.67835938 -31.57229004 83.9075 -31.24731445 83.11328125 C-30.91820068 82.31277344 -30.58908691 81.51226563 -30.25 80.6875 C-27.40535889 73.68692851 -24.76550062 66.64705609 -22.3125 59.5 C-20.15907203 53.22702291 -17.86808186 47.08174987 -15.25 40.984375 C-11.41983527 31.83985672 -8.05188207 22.48736156 -5.0546875 13.0390625 C-3.52635959 8.63521392 -1.73124107 4.32810269 0 0 Z " fill="#2D333C" transform="translate(913,640)"/>
<path d="M0 0 C9.08421487 6.53386386 16.80567491 14.27563129 20.58203125 25.01171875 C21.07703125 28.97171875 21.07703125 28.97171875 21.58203125 33.01171875 C14.32203125 33.01171875 7.06203125 33.01171875 -0.41796875 33.01171875 C-1.05734375 31.48546875 -1.69671875 29.95921875 -2.35546875 28.38671875 C-5.69376156 21.69116555 -10.46571224 18.56802003 -17.3046875 15.875 C-25.1895038 13.68862057 -34.20521799 13.93827565 -41.41796875 18.01171875 C-49.23940558 22.76507815 -52.94940825 28.14547229 -55.41796875 37.01171875 C-55.78116486 40.13225475 -55.9228451 43.24848829 -56.04296875 46.38671875 C-56.08164063 47.21816406 -56.1203125 48.04960938 -56.16015625 48.90625 C-56.25371121 50.94107031 -56.33689588 52.97636291 -56.41796875 55.01171875 C-55.75796875 55.01171875 -55.09796875 55.01171875 -54.41796875 55.01171875 C-54.19882813 55.58019531 -53.9796875 56.14867187 -53.75390625 56.734375 C-50.980107 63.48846343 -47.79541614 69.81031741 -40.79296875 72.82421875 C-39.67921875 73.21609375 -38.56546875 73.60796875 -37.41796875 74.01171875 C-36.59425781 74.53958984 -36.59425781 74.53958984 -35.75390625 75.078125 C-32.11934824 76.53073263 -28.53989373 76.22019309 -24.66796875 76.13671875 C-23.87519531 76.12769531 -23.08242187 76.11867188 -22.265625 76.109375 C-20.31627594 76.08588887 -18.367083 76.05002012 -16.41796875 76.01171875 C-16.41796875 75.35171875 -16.41796875 74.69171875 -16.41796875 74.01171875 C-15.89847656 73.79257812 -15.37898438 73.5734375 -14.84375 73.34765625 C-6.76657389 69.67485528 -3.96374165 65.28518884 -0.41796875 57.01171875 C6.84203125 57.01171875 14.10203125 57.01171875 21.58203125 57.01171875 C19.16935368 69.07510659 15.47859166 78.34734784 5.58203125 86.01171875 C-8.97001936 95.68547558 -23.32840779 98.50617341 -40.75732422 95.625 C-52.77022241 92.73797808 -62.22000608 84.80641479 -69.41796875 75.01171875 C-71.712518 71.12344411 -73.61829309 67.14929082 -75.41796875 63.01171875 C-75.75957031 62.30789063 -76.10117188 61.6040625 -76.453125 60.87890625 C-80.85909734 50.42753001 -79.46967782 36.35731349 -75.7421875 25.97265625 C-69.19857615 11.34121849 -58.77140448 1.50423618 -43.91796875 -4.36328125 C-30.17291254 -8.55728558 -12.49712809 -7.26975794 0 0 Z " fill="#2B313B" transform="translate(247.41796875,643.98828125)"/>
<path d="M0 0 C2.79804841 1.94729045 5.41145635 4.00116643 8.015625 6.19921875 C9.00175781 6.98232422 9.00175781 6.98232422 10.0078125 7.78125 C15.80145182 12.86677785 19.32418393 20.0738535 22.015625 27.19921875 C22.015625 29.17921875 22.015625 31.15921875 22.015625 33.19921875 C14.755625 33.19921875 7.495625 33.19921875 0.015625 33.19921875 C-0.974375 30.55921875 -1.964375 27.91921875 -2.984375 25.19921875 C-4.68086837 22.96661706 -4.68086837 22.96661706 -6.734375 21.38671875 C-7.68570313 20.57267578 -7.68570313 20.57267578 -8.65625 19.7421875 C-14.22296814 16.05283571 -19.30250378 14.68629867 -25.921875 14.82421875 C-26.62626709 14.83437012 -27.33065918 14.84452148 -28.05639648 14.85498047 C-35.93943291 15.09056756 -41.51978389 17.02367769 -47.37890625 22.38671875 C-55.24599449 31.26829769 -55.64333326 40.85315553 -54.984375 52.19921875 C-53.61519975 59.04509502 -49.29227532 66.58188709 -43.984375 71.19921875 C-42.994375 71.52921875 -42.004375 71.85921875 -40.984375 72.19921875 C-40.984375 72.85921875 -40.984375 73.51921875 -40.984375 74.19921875 C-32.82099951 77.23675382 -23.75356461 77.57373134 -15.546875 74.51171875 C-8.46820611 71.23052053 -4.46885603 67.16818081 -0.984375 60.19921875 C-0.489375 58.71421875 -0.489375 58.71421875 0.015625 57.19921875 C7.275625 57.19921875 14.535625 57.19921875 22.015625 57.19921875 C22.015625 54.88921875 22.015625 52.57921875 22.015625 50.19921875 C22.345625 50.19921875 22.675625 50.19921875 23.015625 50.19921875 C23.015625 53.53255208 23.015625 56.86588542 23.015625 60.19921875 C23.345625 60.52921875 23.675625 60.85921875 24.015625 61.19921875 C24.05626332 62.8653899 24.058346 64.5330997 24.015625 66.19921875 C23.355625 64.87921875 22.695625 63.55921875 22.015625 62.19921875 C20.365625 66.15921875 18.715625 70.11921875 17.015625 74.19921875 C16.355625 74.19921875 15.695625 74.19921875 15.015625 74.19921875 C14.83 74.87984375 14.644375 75.56046875 14.453125 76.26171875 C9.67778216 86.02002804 -1.08300777 91.90264484 -10.93896484 95.37670898 C-16.02195169 96.74953107 -20.93761591 96.7396116 -26.171875 96.63671875 C-27.19990234 96.64380859 -28.22792969 96.65089844 -29.28710938 96.65820312 C-35.58822386 96.60579462 -40.2405637 95.7870219 -45.984375 93.19921875 C-47.00402344 92.77382813 -48.02367187 92.3484375 -49.07421875 91.91015625 C-61.30136868 86.17396246 -70.16031935 76.80812416 -75.125 64.1953125 C-77.33023838 57.95035273 -77.54631912 52.20817123 -77.421875 45.63671875 C-77.42896484 44.57775391 -77.43605469 43.51878906 -77.44335938 42.42773438 C-77.33285172 28.63127919 -72.64450026 17.95378001 -63.171875 7.88671875 C-46.81414232 -7.46631634 -19.62718484 -11.84310499 0 0 Z " fill="#2B313D" transform="translate(640.984375,643.80078125)"/>
<path d="M0 0 C0 6.93 0 13.86 0 21 C6.93 21 13.86 21 21 21 C21 26.28 21 31.56 21 37 C14.07 37 7.14 37 0 37 C0.05117501 41.73368865 0.11427068 46.46415803 0.20751953 51.19677734 C0.23565005 52.80474341 0.25690389 54.41284572 0.27099609 56.02099609 C0.29253691 58.34022367 0.33923872 60.65782695 0.390625 62.9765625 C0.39185364 63.68930328 0.39308228 64.40204407 0.39434814 65.13638306 C0.54061437 70.18226887 1.82765415 73.10693636 5 77 C7.83269666 78.41634833 10.47466438 78.3463005 13.625 78.5625 C15.72875 78.706875 17.8325 78.85125 20 79 C20 84.61 20 90.22 20 96 C-5.16686315 96.991689 -5.16686315 96.991689 -12 91 C-18.24394661 84.67513831 -21.34252461 77.14021864 -21.33988953 68.29992676 C-21.32440567 67.51001343 -21.30892181 66.7201001 -21.29296875 65.90625 C-21.28872391 65.07411987 -21.28447906 64.24198975 -21.28010559 63.38464355 C-21.26346307 60.75608407 -21.22583976 58.12832333 -21.1875 55.5 C-21.17243444 53.70574033 -21.15874933 51.9114685 -21.14648438 50.1171875 C-21.11360714 45.74448917 -21.06192722 41.37237947 -21 37 C-23.97 37 -26.94 37 -30 37 C-30 37.99 -30 38.98 -30 40 C-30.88042969 40.04898438 -31.76085937 40.09796875 -32.66796875 40.1484375 C-33.82941406 40.22320313 -34.99085938 40.29796875 -36.1875 40.375 C-37.91033203 40.47941406 -37.91033203 40.47941406 -39.66796875 40.5859375 C-44.07315529 41.1333581 -46.77198249 41.90487189 -50.10717773 44.87915039 C-52.93278657 49.53796088 -52.60308695 53.85365998 -52.609375 59.20703125 C-52.62591125 60.28756271 -52.64244751 61.36809418 -52.65948486 62.48136902 C-52.70798491 65.92513706 -52.72934107 69.36846341 -52.75 72.8125 C-52.77815788 75.15041287 -52.80808504 77.48830515 -52.83984375 79.82617188 C-52.91374498 85.5507449 -52.96330783 91.27507243 -53 97 C-59.93 97 -66.86 97 -74 97 C-74 71.92 -74 46.84 -74 21 C-69.71 21 -65.42 21 -61 21 C-59.68 23.64 -58.36 26.28 -57 29 C-56.50371094 28.60167969 -56.00742187 28.20335937 -55.49609375 27.79296875 C-47.02195988 21.18410913 -40.69425065 19.52587066 -30 20 C-29.505 23.465 -29.505 23.465 -29 27 C-28.36835937 26.30777344 -27.73671875 25.61554687 -27.0859375 24.90234375 C-25.18369021 22.81929094 -23.27469304 20.7426124 -21.36328125 18.66796875 C-18.98554595 16.0847064 -16.63469132 13.47921021 -14.29296875 10.86328125 C-13.04975729 9.49193531 -11.80627174 8.1208378 -10.5625 6.75 C-9.97194824 6.08218506 -9.38139648 5.41437012 -8.77294922 4.72631836 C-7.92821045 3.8021814 -7.92821045 3.8021814 -7.06640625 2.859375 C-6.57084229 2.30733398 -6.07527832 1.75529297 -5.56469727 1.18652344 C-4 0 -4 0 0 0 Z " fill="#2E343E" transform="translate(827,642)"/>
<path d="M0 0 C6.6 0 13.2 0 20 0 C21 1 21 1 21.11352539 4.23461914 C21.11336631 5.66814126 21.10767407 7.10166912 21.09765625 8.53515625 C21.0962413 9.28840683 21.09482635 10.04165741 21.09336853 10.81773376 C21.08775376 13.2326956 21.07519883 15.64756601 21.0625 18.0625 C21.0574869 19.69596221 21.05292366 21.32942586 21.04882812 22.96289062 C21.03777954 26.97529585 21.02050506 30.98763241 21 35 C22.01320313 34.36771484 22.01320313 34.36771484 23.046875 33.72265625 C23.93890625 33.17480469 24.8309375 32.62695312 25.75 32.0625 C27.07257813 31.24458984 27.07257813 31.24458984 28.421875 30.41015625 C35.76010577 26.39636639 45.89386029 26.97663352 54 28 C57.71845433 29.40800431 60.19735693 31.21704763 63 34 C63.54011719 34.4640625 64.08023438 34.928125 64.63671875 35.40625 C66.0625 36.6875 66.0625 36.6875 68 39 C68 39.99 68 40.98 68 42 C68.66 42 69.32 42 70 42 C73.03135815 49.20087462 73.41433092 55.6893734 73.328125 63.4375 C73.32625183 64.59878418 73.32437866 65.76006836 73.32244873 66.95654297 C73.31576078 69.39374696 73.30191181 71.83094082 73.28125 74.26806641 C73.2498656 78.01605088 73.24025207 81.76361539 73.234375 85.51171875 C73.22521354 87.88281768 73.21484051 90.25391231 73.203125 92.625 C73.19887512 93.75091553 73.19462524 94.87683105 73.19024658 96.03686523 C73.18063904 97.06884033 73.17103149 98.10081543 73.16113281 99.1640625 C73.15430481 100.07623535 73.14747681 100.9884082 73.14044189 101.92822266 C73 104 73 104 72 105 C70.5112814 105.08669432 69.018555 105.10703494 67.52734375 105.09765625 C66.62822266 105.09443359 65.72910156 105.09121094 64.80273438 105.08789062 C63.38444336 105.07532227 63.38444336 105.07532227 61.9375 105.0625 C60.98810547 105.05798828 60.03871094 105.05347656 59.06054688 105.04882812 C56.70696935 105.0370011 54.35351523 105.02052025 52 105 C51.99857498 104.37439178 51.99714996 103.74878357 51.99568176 103.10421753 C51.97596838 96.58238088 51.92165916 90.0614781 51.84741211 83.54003906 C51.82424035 81.10749007 51.80983836 78.67484087 51.80444336 76.2421875 C51.79514837 72.74155282 51.75414187 69.2424926 51.70703125 65.7421875 C51.7109639 64.65759247 51.71489655 63.57299744 51.71894836 62.45553589 C51.64375692 55.95849946 51.64375692 55.95849946 48.64331055 50.39111328 C43.79474882 46.00515101 41.05504143 45.61197466 34.7265625 45.75390625 C29.80569583 46.19805324 27.11812164 47.73703195 23.87792969 51.39697266 C20.92396659 56.01490779 21.39676286 61.21443776 21.390625 66.5234375 C21.37408875 67.62475006 21.35755249 68.72606262 21.34051514 69.86074829 C21.29207347 73.36555582 21.27067179 76.86992952 21.25 80.375 C21.22183726 82.7565322 21.19190941 85.13804422 21.16015625 87.51953125 C21.08631489 93.34631846 21.03671633 99.17286537 21 105 C14.07 105 7.14 105 0 105 C0 70.35 0 35.7 0 0 Z " fill="#2E333D" transform="translate(274,634)"/>
<path d="M0 0 C0.99966797 -0.03738281 1.99933594 -0.07476563 3.02929688 -0.11328125 C11.89168598 -0.21693492 19.91945134 2.57584366 26.5546875 8.69921875 C32.78833056 16.2535489 34.88858927 24.01013878 34.453125 33.69921875 C33.05490113 43.66686013 27.99586461 51.54551256 21.9375 59.375 C21.51597656 59.93832031 21.09445312 60.50164063 20.66015625 61.08203125 C17.83792075 64.68346982 14.53120398 67.54964717 11.0703125 70.50390625 C4.72289783 75.80228483 4.72289783 75.80228483 -0.0625 82.375 C11.8175 82.375 23.6975 82.375 35.9375 82.375 C35.9375 88.645 35.9375 94.915 35.9375 101.375 C13.1675 101.375 -9.6025 101.375 -33.0625 101.375 C-33.0625 84.375 -33.0625 84.375 -30.45703125 80.51171875 C-28.7434082 79.22192383 -28.7434082 79.22192383 -26.875 78.0625 C-25.5910483 77.12608907 -24.30986619 76.18587073 -23.03125 75.2421875 C-22.37382812 74.78038086 -21.71640625 74.31857422 -21.0390625 73.84277344 C-17.7379415 71.39139752 -14.83190668 68.53654308 -11.875 65.6875 C-6.48674333 60.51641444 -6.48674333 60.51641444 -3.0625 59.375 C-2.37564243 58.05195469 -1.71166926 56.71693945 -1.0625 55.375 C0.14761674 54.12672643 1.40220204 52.92071713 2.6875 51.75 C8.57488676 45.93781708 13.19716 40.14711022 13.625 31.625 C13.41843323 27.97909642 12.88979493 25.63623256 10.625 22.75 C6.23508579 18.87054093 2.23064663 19.03782757 -3.39453125 19.08984375 C-7.02155137 19.47750476 -8.70004315 20.63150172 -11.0625 23.375 C-13.81643427 27.23050798 -13.41832282 30.22158255 -14.0625 35.375 C-20.6625 35.375 -27.2625 35.375 -34.0625 35.375 C-34.45225303 24.98158598 -33.71007861 19.1774712 -26.875 11.1875 C-18.59619776 2.40899844 -11.80744537 0.16306579 0 0 Z " fill="#2D333E" transform="translate(524.0625,637.625)"/>
<path d="M0 0 C6.93 0 13.86 0 21 0 C21 33 21 66 21 100 C14.07 100 7.14 100 0 100 C0 67 0 34 0 0 Z " fill="#2F333C" transform="translate(980,639)"/>
<path d="M0 0 C1.30710937 -0.01417969 2.61421875 -0.02835937 3.9609375 -0.04296875 C7.36298963 0.1710196 9.59183747 0.70605189 12.625 2.1875 C12.625 2.8475 12.625 3.5075 12.625 4.1875 C13.16125 4.414375 13.6975 4.64125 14.25 4.875 C18.74960769 7.3616253 22.83901421 10.25319506 24.625 15.1875 C25.30399918 23.33549019 25.78857609 31.93481907 21.625 39.1875 C19.47854746 41.49294902 17.2129568 43.39705642 14.625 45.1875 C13.88636719 45.72890625 13.14773438 46.2703125 12.38671875 46.828125 C6.30748597 49.82044891 -2.40107444 48.99327292 -8.91796875 47.671875 C-15.25515095 45.09146548 -18.92760089 38.81853845 -22.375 33.1875 C-24.55696902 26.64159295 -24.10661625 19.28085844 -21.35546875 12.96484375 C-16.4121269 4.00380574 -10.08821882 0.04954921 0 0 Z " fill="#273339" transform="translate(591.375,381.8125)"/>
<path d="M0 0 C1.99854805 1.22304967 3.7408038 2.53285418 5.5234375 4.05078125 C6.40322266 4.71400391 6.40322266 4.71400391 7.30078125 5.390625 C10.03352703 7.50609173 11.41165781 8.71544218 12.5234375 12.05078125 C13.28527344 12.71013672 13.28527344 12.71013672 14.0625 13.3828125 C16.71959053 16.4164426 15.91642752 20.14029289 15.80078125 23.984375 C15.07429072 32.01669983 11.4927219 37.64246575 5.5234375 43.05078125 C4.8634375 43.05078125 4.2034375 43.05078125 3.5234375 43.05078125 C3.1934375 44.04078125 2.8634375 45.03078125 2.5234375 46.05078125 C-1.09523809 47.25700645 -4.40162501 47.15895043 -8.1640625 47.11328125 C-9.2169043 47.10651367 -9.2169043 47.10651367 -10.29101562 47.09960938 C-12.01956788 47.08785052 -13.74807615 47.06991579 -15.4765625 47.05078125 C-15.4765625 46.39078125 -15.4765625 45.73078125 -15.4765625 45.05078125 C-16.3428125 44.98890625 -17.2090625 44.92703125 -18.1015625 44.86328125 C-24.0087655 43.44117682 -27.09781129 39.90354173 -30.2890625 34.98828125 C-33.74124353 29.34636726 -34.29641905 23.56305092 -33.4765625 17.05078125 C-30.81392629 9.12025701 -26.8900287 4.60397457 -19.71484375 0.453125 C-13.69677993 -2.15300879 -6.16880347 -2.36438366 0 0 Z " fill="#273339" transform="translate(529.4765625,371.94921875)"/>
<path d="M0 0 C4.51913271 3.39908904 9.01810166 7.91120332 11.5625 13 C12.54828199 28.67772512 12.54828199 28.67772512 8.5625 35 C6.125 37.6875 6.125 37.6875 3.5625 40 C2.985 40.721875 2.4075 41.44375 1.8125 42.1875 C-3.42599457 46.40739841 -11.28901819 46.57774403 -17.796875 46.44140625 C-24.95995113 45.24402814 -30.37457982 38.66738547 -34.4375 33 C-37.77266403 27.60454692 -37.14750545 20.76948349 -36.0078125 14.71875 C-34.05357339 8.63889498 -29.99783993 3.38686466 -24.6953125 -0.16796875 C-17.5376675 -3.43959619 -6.88971301 -3.97535098 0 0 Z " fill="#283339" transform="translate(461.4375,364)"/>
<path d="M0 0 C5.14319835 2.2773746 8.8763254 6.37696159 12 11 C13.86976392 16.60929175 14.05472398 23.55255932 12.31640625 29.234375 C8.98920946 35.47459471 3.57689625 39.32197828 -2.99609375 41.4921875 C-8.71860935 42.94233765 -13.01785552 42.11057648 -18.07421875 39.33203125 C-23.19081306 35.79296703 -26.79358437 31.15271969 -28 25 C-28.57671254 18.68761913 -28.35399117 13.55504788 -25 8 C-17.23065112 0.07176873 -10.9405552 -1.19679964 0 0 Z " fill="#F4F4F4" transform="translate(398,680)"/>
<path d="M0 0 C5.06495965 3.92792789 9.52930042 8.49667462 10.43359375 15.07421875 C10.59679828 22.41842271 9.62124232 27.50842177 5.0625 33.375 C-0.94296822 39.08751855 -5.6855322 39.78055634 -13.80859375 39.6171875 C-19.5121469 39.17571397 -22.44823049 37.09624035 -26.1875 33 C-30.94479723 27.39866616 -31.48809593 21.8438012 -31.390625 14.6796875 C-30.57398138 8.72382111 -27.46216917 4.61799121 -23.046875 0.6953125 C-17.03753709 -3.0660879 -6.24064802 -3.30548609 0 0 Z " fill="#F7F7F7" transform="translate(714.9375,681.625)"/>
<path d="M0 0 C2.60040276 2.26278141 3.51639267 3.99515349 4.375 7.3125 C6.95159504 16.53967806 10.12582969 25.60003529 14.30078125 34.23046875 C15 36 15 36 15 39 C5.76 39 -3.48 39 -13 39 C-12.14849283 33.0394498 -11.57029985 30.94288433 -9 26 C-7.89650732 23.03436341 -6.96487955 20.01313263 -6 17 C-5.13139932 14.35203287 -4.25351944 11.70718989 -3.375 9.0625 C-3.04749756 8.06778687 -3.04749756 8.06778687 -2.71337891 7.05297852 C-1.11391958 2.22783917 -1.11391958 2.22783917 0 0 Z " fill="#EFEFEE" transform="translate(925,664)"/>
<path d="M0 0 C2.93423195 1.79646854 4.47205355 2.9441071 6 6 C6.42308538 10.59698532 6.53894467 14.70653278 4.75 19 C1.66234712 22.52874615 -0.23264354 22.91473817 -4.9375 23.4375 C-8.42902053 23.35947719 -8.9606187 23.03167626 -11.875 20.6875 C-15.36620339 16.27215454 -16.59281477 13.84320217 -16.4296875 8.296875 C-15.80567766 4.96125876 -14.53995081 3.21770746 -11.98046875 1.03515625 C-8.1044058 -0.99079381 -4.21245565 -0.84249113 0 0 Z " fill="#30353F" transform="translate(868,717)"/>
<path d="M0 0 C0.33 0 0.66 0 1 0 C1 33.99 1 67.98 1 103 C0.67 103 0.34 103 0 103 C-0.33 93.43 -0.66 83.86 -1 74 C-2.32 73.67 -3.64 73.34 -5 73 C-5.33 73.99 -5.66 74.98 -6 76 C-5.25 69.375 -5.25 69.375 -3 66 C-2.01 66.66 -1.02 67.32 0 68 C0 45.56 0 23.12 0 0 Z " fill="#DCDDDE" transform="translate(273,635)"/>
<path d="M0 0 C0.66 0.33 1.32 0.66 2 1 C2.625 3.5625 2.625 3.5625 3 6 C3.66 5.34 4.32 4.68 5 4 C5.33 6.97 5.66 9.94 6 13 C5.01 13 4.02 13 3 13 C2.34 14.65 1.68 16.3 1 18 C-4.94 18 -10.88 18 -17 18 C-17 17.67 -17 17.34 -17 17 C-11.39 17 -5.78 17 0 17 C0 11.39 0 5.78 0 0 Z " fill="#C3C4C8" transform="translate(847,721)"/>
<path d="M0 0 C0.66 0.99 1.32 1.98 2 3 C1.01 4.485 1.01 4.485 0 6 C7.92 6.33 15.84 6.66 24 7 C24.33 6.01 24.66 5.02 25 4 C25.33 5.65 25.66 7.3 26 9 C16.76 9 7.52 9 -2 9 C-1 2 -1 2 0 0 Z " fill="#B5B8BA" transform="translate(914,694)"/>
<path d="M0 0 C0.33 0 0.66 0 1 0 C1.15682154 9.72293552 0.2595608 18.46942737 -2.234375 27.8828125 C-3.45945932 32.87065581 -4.23503544 37.92423518 -5 43 C-5.33 43 -5.66 43 -6 43 C-5.45298808 33.27315238 -4.10694898 23.77318093 -2.4375 14.1875 C-2.20063243 12.80152438 -1.96430153 11.41545692 -1.72851562 10.02929688 C-1.1575828 6.68526177 -0.58132887 3.34224067 0 0 Z " fill="#1B8D74" transform="translate(684,453)"/>
<path d="M0 0 C1.32 0 2.64 0 4 0 C4 2.97 4 5.94 4 9 C10.6 9 17.2 9 24 9 C24 9.33 24 9.66 24 10 C16.41 10 8.82 10 1 10 C0.67 11.32 0.34 12.64 0 14 C0 9.38 0 4.76 0 0 Z " fill="#D7D7D7" transform="translate(486,664)"/>
<path d="M0 0 C11.3440597 0.32799375 22.03963578 0.81989432 33 4 C33 4.33 33 4.66 33 5 C21.7802581 4.56208275 11.01494915 3.16754569 0 1 C0 0.67 0 0.34 0 0 Z " fill="#087AA5" transform="translate(502,257)"/>
<path d="M0 0 C0.33 0 0.66 0 1 0 C1 5.94 1 11.88 1 18 C2.7325 17.484375 4.465 16.96875 6.25 16.4375 C9.91973519 15.34531691 12.34142468 14.68465506 16 16 C14.274773 16.67679658 12.54461061 17.34102 10.8125 18 C9.84957031 18.37125 8.88664063 18.7425 7.89453125 19.125 C5.0618303 19.98130906 2.93566326 20.25028745 0 20 C-1 19 -1 19 -1.1328125 16.77734375 C-1.11716286 11.08869829 -0.84921859 5.62607319 0 0 Z " fill="#C79037" transform="translate(709,477)"/>
<path d="M0 0 C0.66 0.33 1.32 0.66 2 1 C-3.28 6.28 -8.56 11.56 -14 17 C-14.99 16.67 -15.98 16.34 -17 16 C-15.04761147 13.99387601 -13.08862178 11.99507567 -11.125 10 C-10.29162109 9.14148438 -10.29162109 9.14148438 -9.44140625 8.265625 C-7.99865596 6.80549218 -6.5025626 5.39850702 -5 4 C-4.34 4 -3.68 4 -3 4 C-2.67 3.01 -2.34 2.02 -2 1 C-1.34 0.67 -0.68 0.34 0 0 Z " fill="#DADBDB" transform="translate(541,702)"/>
<path d="M0 0 C-7.86927453 3.70597097 -15.85280238 6.95613443 -24 10 C-24 9.34 -24 8.68 -24 8 C-20.16685169 6.03162654 -16.28708732 4.18178732 -12.375 2.375 C-11.45460938 1.94960938 -10.53421875 1.52421875 -9.5859375 1.0859375 C-3.90240642 -1.30080214 -3.90240642 -1.30080214 0 0 Z " fill="#D69736" transform="translate(756,479)"/>
<path d="M0 0 C0.33 0 0.66 0 1 0 C1 4.95 1 9.9 1 15 C0.01 15.33 -0.98 15.66 -2 16 C-2.05384521 13.70858714 -2.09272087 11.41681812 -2.125 9.125 C-2.14820313 7.84882812 -2.17140625 6.57265625 -2.1953125 5.2578125 C-2 2 -2 2 0 0 Z " fill="#CED0D3" transform="translate(349,695)"/>
<path d="M0 0 C0.66 0 1.32 0 2 0 C0.61219205 3.89006773 -1.2152227 6.96558708 -3.625 10.3125 C-4.25664063 11.19550781 -4.88828125 12.07851563 -5.5390625 12.98828125 C-6.02117188 13.65214844 -6.50328125 14.31601562 -7 15 C-7.99 14.67 -8.98 14.34 -10 14 C-9.04956626 12.66102417 -8.08940853 11.32894573 -7.125 10 C-6.32449219 8.88625 -6.32449219 8.88625 -5.5078125 7.75 C-5.01023437 7.1725 -4.51265625 6.595 -4 6 C-3.34 6 -2.68 6 -2 6 C-1.855625 5.38125 -1.71125 4.7625 -1.5625 4.125 C-1 2 -1 2 0 0 Z " fill="#D99B35" transform="translate(779,455)"/>
<path d="M0 0 C0.99 0.33 1.98 0.66 3 1 C2.36191406 1.62648438 1.72382813 2.25296875 1.06640625 2.8984375 C0.24011719 3.71570313 -0.58617187 4.53296875 -1.4375 5.375 C-2.26121094 6.18710937 -3.08492188 6.99921875 -3.93359375 7.8359375 C-6.03434672 9.82348515 -6.03434672 9.82348515 -7 12 C-7.66 12 -8.32 12 -9 12 C-7.88081459 6.77713475 -5.6539919 4.36488719 -1.75390625 1.00390625 C-1.17511719 0.67261719 -0.59632813 0.34132813 0 0 Z " fill="#25524E" transform="translate(507,374)"/>
<path d="M0 0 C0.33 0 0.66 0 1 0 C0.88485851 2.04224637 0.75742674 4.08380159 0.625 6.125 C0.52058594 7.83042969 0.52058594 7.83042969 0.4140625 9.5703125 C0.00556124 12.95393616 -0.80967569 15.81612441 -2 19 C-2.33 19 -2.66 19 -3 19 C-2.88485851 16.95775363 -2.75742674 14.91619841 -2.625 12.875 C-2.55539062 11.73804688 -2.48578125 10.60109375 -2.4140625 9.4296875 C-2.00556124 6.04606384 -1.19032431 3.18387559 0 0 Z " fill="#20252C" transform="translate(791,412)"/>
<path d="M0 0 C0.66 0 1.32 0 2 0 C1.45136137 6.7857936 0.45732062 13.35009036 -1 20 C-1.33 20 -1.66 20 -2 20 C-2.23668569 12.96517526 -1.7879537 6.8165735 0 0 Z " fill="#1A997A" transform="translate(687,432)"/>
<path d="M0 0 C0.99 0.66 1.98 1.32 3 2 C2.13117188 2.04898437 1.26234375 2.09796875 0.3671875 2.1484375 C-0.78523438 2.22320312 -1.93765625 2.29796875 -3.125 2.375 C-4.83042969 2.47941406 -4.83042969 2.47941406 -6.5703125 2.5859375 C-9.95393616 2.99443876 -12.81612441 3.80967569 -16 5 C-11.71498889 -0.91036016 -7.0219621 -1.03264149 0 0 Z " fill="#228F76" transform="translate(453,360)"/>
<path d="M0 0 C0.99 1.485 0.99 1.485 2 3 C3.65 2.67 5.3 2.34 7 2 C6.01 4.97 5.02 7.94 4 11 C3.67 9.68 3.34 8.36 3 7 C2.67 7.33 2.34 7.66 2 8 C1.01 8.495 1.01 8.495 0 9 C0 6.03 0 3.06 0 0 Z " fill="#D0D2D3" transform="translate(874,724)"/>
<path d="M0 0 C0.99386719 0.00902344 1.98773438 0.01804687 3.01171875 0.02734375 C4.15060547 0.04474609 4.15060547 0.04474609 5.3125 0.0625 C5.6425 0.7225 5.9725 1.3825 6.3125 2.0625 C5.19101562 2.02769531 5.19101562 2.02769531 4.046875 1.9921875 C3.06203125 1.97414063 2.0771875 1.95609375 1.0625 1.9375 C0.08796875 1.91429687 -0.8865625 1.89109375 -1.890625 1.8671875 C-6.31359803 2.17605433 -8.75532072 3.83710279 -11.6875 7.0625 C-12.0175 6.0725 -12.3475 5.0825 -12.6875 4.0625 C-8.41027069 0.67021469 -5.42406114 -0.06381248 0 0 Z " fill="#D1D3D3" transform="translate(311.6875,678.9375)"/>
<path d="M0 0 C0.33 0 0.66 0 1 0 C1.0543965 2.37531394 1.09385864 4.74935883 1.125 7.125 C1.15013672 8.12273437 1.15013672 8.12273437 1.17578125 9.140625 C1.21847278 13.49516056 0.59996217 16.95600114 -1 21 C-1.33 21 -1.66 21 -2 21 C-2.28100502 13.83437211 -1.20443195 7.05453001 0 0 Z " fill="#4B483D" transform="translate(805,323)"/>
<path d="M0 0 C0.66 0.33 1.32 0.66 2 1 C2 1.66 2 2.32 2 3 C2.99 3.33 3.98 3.66 5 4 C-0.15171623 4.09038099 -4.91913204 3.84681133 -10 3 C-6.68587278 -0.05919435 -4.45155852 -0.38709205 0 0 Z " fill="#1E3646" transform="translate(547,227)"/>
<path d="M0 0 C0.66 0.33 1.32 0.66 2 1 C-1.63 4.63 -5.26 8.26 -9 12 C-9 7.8407692 -6.75316432 5.85455565 -4 3 C-1.6875 1.125 -1.6875 1.125 0 0 Z " fill="#D5D6D7" transform="translate(599,661)"/>
<path d="M0 0 C0.66 0.66 1.32 1.32 2 2 C2.66 1.67 3.32 1.34 4 1 C3.34 4.3 2.68 7.6 2 11 C1.34 10.67 0.68 10.34 0 10 C0 6.7 0 3.4 0 0 Z " fill="#EAEAEC" transform="translate(347,687)"/>
<path d="M0 0 C1.32 0.33 2.64 0.66 4 1 C3.01 2.98 2.02 4.96 1 7 C1.66 7.33 2.32 7.66 3 8 C2.34 8.66 1.68 9.32 1 10 C-0.625 7.25 -0.625 7.25 -2 4 C-1.1875 1.625 -1.1875 1.625 0 0 Z " fill="#CF973A" transform="translate(723,305)"/>
<path d="M0 0 C5.61 0.33 11.22 0.66 17 1 C17 1.33 17 1.66 17 2 C11.06 2.495 11.06 2.495 5 3 C5 2.34 5 1.68 5 1 C3.35 1 1.7 1 0 1 C0 0.67 0 0.34 0 0 Z " fill="#3B404A" transform="translate(650,214)"/>
<path d="M0 0 C0.66 0.33 1.32 0.66 2 1 C2.59355614 3.64860427 2.74209269 6.29197322 3 9 C2.67 8.01 2.34 7.02 2 6 C-0.475 7.485 -0.475 7.485 -3 9 C-2.01 6.03 -1.02 3.06 0 0 Z " fill="#C7C7C9" transform="translate(662,705)"/>
<path d="M0 0 C1.62580966 0.11398665 3.25067157 0.24155659 4.875 0.375 C5.77992188 0.44460937 6.68484375 0.51421875 7.6171875 0.5859375 C10 1 10 1 12 3 C7.38 3 2.76 3 -2 3 C-1.34 2.67 -0.68 2.34 0 2 C0 1.34 0 0.68 0 0 Z " fill="#4C505A" transform="translate(323,163)"/>
<path d="M0 0 C0.33 0 0.66 0 1 0 C0.88557539 1.60495567 0.75805306 3.20898119 0.625 4.8125 C0.55539062 5.70582031 0.48578125 6.59914063 0.4140625 7.51953125 C0 10 0 10 -2 13 C-2.05416188 11.39620659 -2.09286638 9.79188594 -2.125 8.1875 C-2.14820313 7.29417969 -2.17140625 6.40085937 -2.1953125 5.48046875 C-2 3 -2 3 0 0 Z " fill="#D19A39" transform="translate(812,282)"/>
<path d="M0 0 C0.66 0.33 1.32 0.66 2 1 C-0.97 3.97 -3.94 6.94 -7 10 C-7 7 -7 7 -4.625 4.4375 C-3.75875 3.633125 -2.8925 2.82875 -2 2 C-1.34 1.34 -0.68 0.68 0 0 Z " fill="#C8CBCE" transform="translate(694,681)"/>
<path d="M0 0 C-0.33 0.99 -0.66 1.98 -1 3 C-3.31 3 -5.62 3 -8 3 C-8 2.34 -8 1.68 -8 1 C-4.93251126 -0.86240388 -3.40254489 -1.2151946 0 0 Z " fill="#1187B8" transform="translate(451,249)"/>
<path d="M0 0 C-1.5830577 4.2742558 -4.50568404 6.26531794 -8 9 C-6.68994234 5.06982701 -4.75047804 0 0 0 Z " fill="#C9CCD0" transform="translate(203,664)"/>
<path d="M0 0 C1.32 0.33 2.64 0.66 4 1 C-0.95 3.475 -0.95 3.475 -6 6 C-6.33 5.34 -6.66 4.68 -7 4 C-6.030625 3.525625 -5.06125 3.05125 -4.0625 2.5625 C-1.19522563 1.29806053 -1.19522563 1.29806053 0 0 Z " fill="#DF9B32" transform="translate(739,483)"/>
<path d="M0 0 C6.625 -0.25 6.625 -0.25 10 2 C10 2.66 10 3.32 10 4 C6.7 3.01 3.4 2.02 0 1 C0 0.67 0 0.34 0 0 Z " fill="#0D77A9" transform="translate(680,278)"/>
</svg>
